<?xml version="1.0" encoding="UTF-8"?>
<svg id="Layer_1" data-name="Layer 1" xmlns="http://www.w3.org/2000/svg" viewBox="0 0 476.8 125.65">
  <defs>
    <style>
      .cls-1, .cls-2, .cls-3 {
        fill: #5b4b43;
      }

      .cls-4 {
        fill: #09486d;
      }

      .cls-5 {
        fill: #09486e;
      }

      .cls-6 {
        fill: #79bd98;
      }

      .cls-2 {
        font-family: TheSansArabic-Plain, TheSansArabic;
        font-size: 18.58px;
      }

      .cls-3 {
        font-family: Bahnschrift-Bold, Bahnschrift;
        font-size: 12.98px;
        font-variation-settings: 'wght' 700, 'wdth' 100;
        font-weight: 700;
      }
    </style>
  </defs>
  <g>
    <path class="cls-1" d="M167.66,119.18h-1.67v-7.04c0-1.21-.65-1.81-1.94-1.81h-3v6.44c0,.89-.27,1.55-.82,1.98-.45.35-1.03.53-1.75.53-.45,0-.88-.08-1.27-.25v-1.24c.3.1.59.15.88.15.87,0,1.3-.37,1.3-1.12v-6.5h-1.59v-1.37h5.98c1.43,0,2.44.25,3.02.74.58.49.87,1.28.87,2.37v7.12Z"/>
    <path class="cls-1" d="M171.98,114.29h-1.67v-5.34h1.67v5.34Z"/>
    <path class="cls-1" d="M182.84,119.18h-8.59v-1.29h5.89v-5.58c0-.98-.35-1.58-1.06-1.82-.45-.15-1.2-.22-2.26-.22-.77,0-1.58.05-2.45.14v-1.36c1.11-.09,2.07-.13,2.86-.13,1.35,0,2.36.16,3.05.49,1.02.5,1.53,1.49,1.53,2.98v5.5h1.03v1.29Z"/>
    <path class="cls-1" d="M191.72,119.18h-1.67v-6.79c0-.8-.2-1.35-.59-1.65-.39-.3-1.3-.45-2.73-.45-.8,0-1.62.05-2.45.14v-1.36c.68-.1,1.63-.15,2.83-.15,1.77,0,2.98.25,3.63.76.65.5.98,1.33.98,2.46v7.04Z"/>
    <path class="cls-1" d="M202.75,108.96l-.34,5.9c-.05,1.02-.22,1.81-.51,2.38-.31.62-.82,1.12-1.55,1.49-.57.3-1.39.45-2.45.45h-4.32v-1.29h2.41l-1.53-8.93h1.63l1.44,9c.94,0,1.59-.09,1.94-.28.48-.25.82-.58,1.02-.98.17-.36.28-.89.32-1.59l.34-6.16h1.61Z"/>
    <path class="cls-1" d="M213.88,119.18h-1.67v-6.85c0-.91-.28-1.5-.84-1.76-.42-.2-1.29-.3-2.62-.3-1.49,0-2.63.07-3.42.2v-1.38c1.07-.14,2.3-.21,3.67-.21,1.69,0,2.87.2,3.55.6.89.54,1.33,1.45,1.33,2.75v6.95ZM207.12,119.18h-1.67v-5.65h1.67v5.65Z"/>
    <path class="cls-1" d="M230.45,119.18h-1.67v-6.85c0-.91-.28-1.5-.84-1.76-.42-.2-1.29-.3-2.62-.3-1.49,0-2.63.07-3.42.2v-1.38c1.07-.14,2.3-.21,3.67-.21,1.69,0,2.87.2,3.55.6.89.54,1.33,1.45,1.33,2.75v6.95ZM223.68,119.18h-1.67v-5.65h1.67v5.65Z"/>
    <path class="cls-1" d="M240.13,119.18h-1.67v-6.79c0-.8-.2-1.35-.59-1.65-.39-.3-1.3-.45-2.73-.45-.8,0-1.62.05-2.45.14v-1.36c.68-.1,1.63-.15,2.83-.15,1.77,0,2.98.25,3.63.76.65.5.98,1.33.98,2.46v7.04Z"/>
    <path class="cls-1" d="M250.96,119.18h-8.59v-1.29h5.89v-5.58c0-.98-.35-1.58-1.06-1.82-.45-.15-1.2-.22-2.26-.22-.77,0-1.58.05-2.45.14v-1.36c1.11-.09,2.07-.13,2.86-.13,1.35,0,2.36.16,3.05.49,1.02.5,1.53,1.49,1.53,2.98v5.5h1.03v1.29Z"/>
    <path class="cls-1" d="M261.97,119.18h-1.67v-6.95c0-.86-.28-1.42-.83-1.69-.4-.18-1.22-.28-2.45-.28s-1.98.03-2.29.08v8.83h-1.67v-10.09c1.26-.13,2.64-.19,4.14-.19,1.87,0,3.13.27,3.79.8.66.54.98,1.38.98,2.53v6.95Z"/>
    <path class="cls-1" d="M272.85,119.18h-8.59v-1.29h5.89v-5.58c0-.98-.35-1.58-1.06-1.82-.45-.15-1.2-.22-2.26-.22-.77,0-1.58.05-2.45.14v-1.36c1.11-.09,2.07-.13,2.86-.13,1.35,0,2.36.16,3.05.49,1.02.5,1.53,1.49,1.53,2.98v5.5h1.03v1.29Z"/>
    <path class="cls-1" d="M288.61,119.18h-1.67v-6.85c0-.91-.28-1.5-.84-1.76-.42-.2-1.29-.3-2.62-.3-1.49,0-2.63.07-3.42.2v-1.38c1.07-.14,2.3-.21,3.67-.21,1.69,0,2.87.2,3.55.6.89.54,1.33,1.45,1.33,2.75v6.95ZM281.84,119.18h-1.67v-5.65h1.67v5.65Z"/>
    <path class="cls-1" d="M300.86,108.96l-.79,6.29c-.17,1.36-.58,2.35-1.22,2.97-.68.65-1.72.98-3.12.98h-.79v-1.31h.77c.88,0,1.51-.18,1.9-.54.39-.36.65-1.01.77-1.95l.62-5.07h-7.96v-1.37h9.81ZM293.23,122.63h-1.67v-10.04h1.67v10.04Z"/>
    <path class="cls-1" d="M305.19,119.18h-1.67v-10.22h1.67v10.22Z"/>
    <path class="cls-1" d="M317.51,112.23c0,2.66-.56,4.61-1.67,5.86-.72.81-1.79,1.22-3.2,1.22s-2.51-.37-3.24-1.11c-.67-.66-1.06-1.69-1.18-3.1l-.51-6.14h6.55c2.16,0,3.24,1.09,3.24,3.28ZM315.81,112.53c0-.85-.19-1.44-.58-1.77-.34-.29-.89-.43-1.67-.43h-4.04l.32,4.89c.09,1.35.53,2.21,1.33,2.58.36.15.85.23,1.46.23.9,0,1.58-.24,2.04-.73.36-.39.66-1.08.88-2.08.18-.86.27-1.76.27-2.68Z"/>
    <path class="cls-1" d="M328.35,108.96l-.34,5.9c-.05,1.02-.22,1.81-.51,2.38-.31.62-.82,1.12-1.55,1.49-.58.3-1.39.45-2.45.45h-4.32v-1.29h2.41l-1.53-8.93h1.63l1.44,9c.94,0,1.59-.09,1.94-.28.48-.25.82-.58,1.02-.98.17-.36.28-.89.32-1.59l.33-6.16h1.61Z"/>
    <path class="cls-1" d="M340.52,119.18h-1.67v-7.04c0-1.21-.65-1.81-1.95-1.81h-3v6.44c0,.89-.27,1.55-.82,1.98-.45.35-1.03.53-1.75.53-.45,0-.88-.08-1.27-.25v-1.24c.3.1.59.15.88.15.87,0,1.3-.37,1.3-1.12v-6.5h-1.59v-1.37h5.98c1.43,0,2.44.25,3.02.74.58.49.87,1.28.87,2.37v7.12Z"/>
    <path class="cls-1" d="M357.55,119.18h-8.91v-10.11c1-.1,2.45-.15,4.35-.15,1.65,0,2.8.23,3.46.69.73.5,1.1,1.46,1.1,2.86v6.71ZM355.88,117.87v-5.48c0-.99-.28-1.62-.85-1.88-.33-.15-1.1-.22-2.31-.22-1.44,0-2.25.01-2.41.04v7.54h5.58Z"/>
    <path class="cls-1" d="M362.05,119.18h-1.67v-10.22h1.67v10.22Z"/>
    <path class="cls-1" d="M372.64,110.33h-1.5v8.85h-1.67v-8.85h-5.46v-1.37h8.63v1.37Z"/>
    <path class="cls-1" d="M376.64,114.29h-1.67v-5.34h1.67v5.34Z"/>
    <path class="cls-1" d="M388.93,108.96l-.79,6.29c-.17,1.36-.58,2.35-1.22,2.97-.68.65-1.72.98-3.12.98h-.79v-1.31h.77c.88,0,1.51-.18,1.9-.54.39-.36.65-1.01.77-1.95l.62-5.07h-7.96v-1.37h9.81ZM381.3,122.63h-1.67v-10.04h1.67v10.04Z"/>
    <path class="cls-1" d="M399.35,108.96l-.8,6.42c-.17,1.3-.57,2.26-1.18,2.87-.66.63-1.63.94-2.9.94h-2.2v-1.31h2.1c.84,0,1.44-.17,1.82-.52.38-.35.63-.98.75-1.91l.6-5.11h-6.61v-4.76h1.65v3.39h6.77Z"/>
    <path class="cls-1" d="M416.8,119.18h-1.67v-7.04c0-1.21-.65-1.81-1.95-1.81h-3v6.44c0,.89-.27,1.55-.82,1.98-.45.35-1.03.53-1.75.53-.45,0-.88-.08-1.27-.25v-1.24c.3.1.59.15.88.15.87,0,1.3-.37,1.3-1.12v-6.5h-1.59v-1.37h5.98c1.43,0,2.44.25,3.02.74.58.49.87,1.28.87,2.37v7.12Z"/>
    <path class="cls-1" d="M421.2,119.18h-1.67v-10.22h1.67v10.22Z"/>
    <path class="cls-1" d="M432.99,114.03c0,2.04-.63,3.52-1.88,4.42-.75.54-1.9.8-3.46.8-1.46,0-2.58-.16-3.35-.47v-1.31c.77.27,1.88.41,3.32.41,1.31,0,2.24-.29,2.8-.87s.83-1.52.83-2.82v-.34c0-1.4-.28-2.38-.82-2.94-.49-.5-1.26-.75-2.32-.75h-.13c-1.74,0-2.61.75-2.61,2.25v.09c0,.66.18,1.16.55,1.49.3.26.68.39,1.14.39v1.12c-.08.01-.28.02-.59.02-.86,0-1.51-.22-1.96-.67-.58-.58-.87-1.4-.87-2.47s.35-1.87,1.06-2.51c.8-.73,1.92-1.09,3.37-1.09,3.28,0,4.92,1.69,4.92,5.06v.19Z"/>
    <path class="cls-1" d="M444.92,119.18h-1.67v-7.04c0-1.21-.65-1.81-1.95-1.81h-3v6.44c0,.89-.27,1.55-.82,1.98-.45.35-1.03.53-1.75.53-.45,0-.88-.08-1.27-.25v-1.24c.3.1.59.15.88.15.87,0,1.3-.37,1.3-1.12v-6.5h-1.59v-1.37h5.98c1.43,0,2.44.25,3.02.74.58.49.87,1.28.87,2.37v7.12Z"/>
    <path class="cls-1" d="M449.31,119.18h-1.67v-10.22h1.67v10.22Z"/>
    <path class="cls-1" d="M463.14,108.96l-.57,5.95c-.16,1.62-.64,2.75-1.45,3.4-.8.65-2.16.97-4.05.97-2,0-3.48-.08-4.45-.23l-.73-10.09h1.63l.32,5.28h.88c.66,0,1.09-.07,1.27-.2.31-.22.48-.67.51-1.35l.17-3.73h1.66l-.26,3.69c-.06,1.02-.34,1.74-.84,2.16-.43.37-1.12.56-2.04.56-.5,0-.93-.03-1.29-.09l.13,2.56c1.16.09,2.15.13,2.96.13,1.36,0,2.31-.18,2.86-.55.6-.4.95-1.15,1.06-2.26l.56-6.2h1.65Z"/>
    <path class="cls-1" d="M474.37,119.18h-1.67v-6.85c0-.91-.28-1.5-.84-1.76-.42-.2-1.29-.3-2.62-.3-1.49,0-2.63.07-3.42.2v-1.38c1.07-.14,2.3-.21,3.67-.21,1.69,0,2.87.2,3.55.6.89.54,1.33,1.45,1.33,2.75v6.95ZM467.6,119.18h-1.67v-5.65h1.67v5.65Z"/>
  </g>
  <g>
    <path class="cls-4" d="M185.98,41.14l5.81,5.7c-3.63,4.12-8.95,6.73-14.88,6.73-5.42,0-10.33-2.17-13.91-5.7-3.66-3.6-5.92-8.6-5.92-14.13s2.48-10.99,6.43-14.61c3.52-3.24,8.23-5.21,13.4-5.21,5.98,0,11.35,2.65,14.98,6.84l-5.93,5.56c-2.15-2.62-5.41-4.29-9.06-4.29-2.89,0-5.54,1.05-7.59,2.79-2.52,2.15-4.12,5.35-4.12,8.92,0,3.38,1.43,6.43,3.73,8.57,2.09,1.95,4.9,3.14,7.98,3.14,3.66,0,6.93-1.68,9.07-4.31Z"/>
    <g>
      <path class="cls-6" d="M257.06,52.67V14.8s3.64,0,3.64,0v37.88s-3.64,0-3.64,0Z"/>
      <path class="cls-6" d="M323.03,52.67v-22.5c0-8.17-4.23-12.92-11.21-12.92-6.39,0-11.96,4.9-11.96,13.37v22.06s-3.64,0-3.64,0v-22.73c0-7.87-4.31-12.7-11.07-12.7-6.76,0-12.11,5.94-12.11,13.59v21.83s-3.64,0-3.64,0V14.8s3.64,0,3.64,0v6.76c2.45-3.94,5.87-7.65,12.63-7.65,6.61,0,10.69,3.79,12.77,8.17,2.45-4.23,6.54-8.17,13.66-8.17,8.99,0,14.56,6.31,14.56,15.82v22.95s-3.64,0-3.64,0Z"/>
      <path class="cls-6" d="M354.82,53.56c-7.58,0-12.48-4.31-15.6-9.06v20.05s-3.64,0-3.64,0V14.8s3.64,0,3.64,0v8.47c3.27-4.98,8.1-9.36,15.6-9.36,9.13,0,18.42,7.35,18.42,19.68v.15c0,12.33-9.28,19.83-18.42,19.83ZM369.3,33.73c0-9.95-6.91-16.34-14.85-16.34-7.87,0-15.45,6.61-15.45,16.26v.15c0,9.73,7.57,16.26,15.45,16.26,8.24,0,14.85-6.02,14.85-16.19v-.15Z"/>
      <path class="cls-6" d="M406.14,52.67v-6.31c-2.6,3.64-7.28,7.2-14.48,7.2-7.06,0-14.63-4.01-14.63-11.88v-.15c0-7.87,6.76-12.33,16.56-12.33,5.27,0,8.91.67,12.55,1.63v-1.63c0-7.65-4.68-11.59-12.48-11.59-4.6,0-8.39,1.26-11.88,3.04l-1.34-3.19c4.16-1.93,8.24-3.27,13.44-3.27,9.73,0,15.82,5.05,15.82,14.85v23.62s-3.57,0-3.57,0ZM406.21,34.18c-3.19-.82-7.43-1.71-12.85-1.71-8.02,0-12.48,3.56-12.48,8.84v.15c0,5.5,5.2,8.69,10.99,8.69,7.72,0,14.33-4.75,14.33-11.66v-4.31Z"/>
      <path class="cls-6" d="M435.03,53.56c-10.92,0-19.31-9.06-19.31-19.68v-.15c0-10.62,8.47-19.83,19.31-19.83,7.13,0,11.59,3.27,15.15,6.98l-2.6,2.67c-3.27-3.34-6.98-6.24-12.63-6.24-8.61,0-15.3,7.2-15.3,16.26v.15c0,9.13,6.91,16.41,15.6,16.41,5.35,0,9.51-2.75,12.7-6.31l2.52,2.23c-3.86,4.38-8.47,7.5-15.45,7.5Z"/>
      <path class="cls-6" d="M468.9,53.34c-5.87,0-10.62-3.19-10.62-10.4v-24.8s-5.5,0-5.5,0v-3.34s5.5,0,5.5,0V2.69s3.64,0,3.64,0v12.11s13.29,0,13.29,0v3.34s-13.29,0-13.29,0v24.43c0,5.42,3.19,7.35,7.57,7.35,1.86,0,3.42-.37,5.57-1.34v3.42c-1.93.89-3.79,1.34-6.16,1.34Z"/>
      <rect class="cls-6" x="243.07" y="30.18" width="5.95" height="5.95" transform="translate(95.51 -164.27) rotate(45)"/>
    </g>
    <path class="cls-4" d="M215.2,13.91c-10.95,0-19.83,8.88-19.83,19.83s8.88,19.83,19.83,19.83,19.83-8.88,19.83-19.83-8.88-19.83-19.83-19.83ZM215.2,45.45c-6.47,0-11.71-5.24-11.71-11.71s5.24-11.71,11.71-11.71,11.71,5.24,11.71,11.71-5.24,11.71-11.71,11.71Z"/>
  </g>
  <g>
    <path class="cls-5" d="M144.14,57.73c-.29,17.79-14.64,32.47-32.42,33.15-6.04.23-11.75-1.13-16.74-3.69l10.84-10.62c1.43.33,2.91.52,4.43.53,10.26.08,19.05-7.81,20-18.03,1.1-11.87-8.21-21.83-19.85-21.83-5.16,0-9.86,1.96-13.4,5.17,0,.01-.02.02-.02.02l-1,.98s0,0,0,0l-9.71,9.49-9.76-9.76,9.47-9.27.09-.09,1.43-1.41L116.45,4c5.48-5.37,14.26-5.33,19.69.1h0s-20.2,19.76-20.2,19.76c16.19,2.67,28.49,16.86,28.2,33.86Z"/>
    <path class="cls-6" d="M71.92,47.63l-13.6-13.59-.02-.02c-6.54-6.94-16.01-11.12-26.41-10.56C14.3,24.4.27,39.02,0,56.63c-.26,16.99,12.04,31.16,28.22,33.82l-17.55,17.2.17.17c5.29,5.29,13.85,5.34,19.2.11l25.94-25.39h0s2.6-2.55,2.6-2.55l.02-.03,18.38-17.99,4.69-4.59-9.76-9.76ZM55.88,63.35l-7.66,7.51s-.04.03-.05.05c-.33.35-.67.68-1.03,1,0,0,0,0-.01.01-3.54,3.21-8.23,5.17-13.39,5.17-11.01,0-19.93-8.93-19.93-19.93s8.93-19.93,19.93-19.93c4.88,0,9.34,1.75,12.81,4.66.57.48,1.11.98,1.62,1.51l.02.02,14.32,13.44-6.63,6.5Z"/>
    <path class="cls-5" d="M102.17,52.08c5.26,5.26,5.22,13.8-.1,19.01l-2.72,2.66-9.99,9.79-32.31,31.66c-5.35,5.24-13.91,5.19-19.2-.1h0s42.82-41.96,42.82-41.96l10.6-10.39h0l3.13-3.07,7.76-7.61h0Z"/>
  </g>
  <text class="cls-3" transform="translate(157.74 76.86)"><tspan x="0" y="0">The Partnership for a Breakthrough in Arab Employment</tspan></text>
  <text class="cls-2" transform="translate(152.36 97.67)"><tspan x="0" y="0">الشراكة لتعزيز العمل في المجتمع العربي</tspan></text>
</svg>