<svg width="108" height="108" viewBox="0 0 108 108" fill="none" xmlns="http://www.w3.org/2000/svg">
<path d="M104.4 50.7273H100.005C99.3023 39.4445 94.5219 28.8641 86.5016 20.8438C78.4812 12.8234 67.9008 8.04297 56.618 7.34063V2.94531C56.618 1.31406 55.3039 0 53.6727 0C52.0414 0 50.7273 1.31406 50.7273 2.94531V7.34063C39.4445 8.04297 28.8641 12.8234 20.8438 20.8438C12.8234 28.8641 8.04297 39.4445 7.34062 50.7273H2.94531C1.31406 50.7273 0 52.0414 0 53.6727C0 55.3039 1.31406 56.618 2.94531 56.618H7.34062C8.04297 67.9008 12.8234 78.4812 20.8438 86.5016C28.8641 94.5219 39.4445 99.3023 50.7273 100.005V104.4C50.7273 106.031 52.0414 107.345 53.6727 107.345C55.3039 107.345 56.618 106.031 56.618 104.4V100.005C67.9008 99.3023 78.4812 94.5219 86.5016 86.5016C94.5219 78.4812 99.3023 67.9008 100.005 56.618H104.4C106.031 56.618 107.345 55.3039 107.345 53.6727C107.345 52.0414 106.031 50.7273 104.4 50.7273ZM94.0914 50.7273H83.6242C82.2422 36.4312 70.8687 25.0805 56.5727 23.6758V13.2086C66.2922 13.9109 75.3773 18.057 82.3102 24.9898C89.243 31.9227 93.3891 41.0078 94.0914 50.7273ZM56.5953 83.6695C70.8914 82.2875 82.2422 70.9141 83.6469 56.618H94.1141C93.4117 66.3375 89.2656 75.4227 82.3328 82.3555C75.4227 89.2656 66.3148 93.4344 56.5953 94.1367V83.6695ZM63.4148 50.7273C62.4406 47.4422 59.8805 44.882 56.5953 43.9078V29.6117C61.9422 30.2687 66.9492 32.693 70.8008 36.5445C74.6523 40.3961 77.0766 45.3805 77.7336 50.75H63.4375L63.4148 50.7273ZM77.7109 56.618C77.0539 61.9648 74.6297 66.9719 70.7781 70.8234C66.9266 74.675 61.9422 77.0992 56.5727 77.7562V63.4602C59.8578 62.4859 62.418 59.9258 63.3922 56.6406H77.6883L77.7109 56.618ZM50.7047 23.6758C36.4086 25.0578 25.0578 36.4312 23.6531 50.7273H13.1859C13.8883 41.0078 18.0344 31.9227 24.9672 24.9898C31.8773 18.0797 40.9852 13.9109 50.7047 13.2086V23.6758ZM43.8852 50.7273H29.5891C30.2461 45.3805 32.6703 40.3734 36.5219 36.5219C40.3734 32.6703 45.3578 30.2461 50.7273 29.5891V43.8852C47.4422 44.8594 44.882 47.4195 43.9078 50.7047L43.8852 50.7273ZM43.8852 56.618C44.8594 59.9031 47.4195 62.4633 50.7047 63.4375V77.7336C45.3578 77.0766 40.3508 74.6523 36.4992 70.8008C32.6477 66.9492 30.2234 61.9648 29.5664 56.5953H43.8625L43.8852 56.618ZM50.7047 83.6695V94.1367C40.9852 93.4344 31.9 89.2883 24.9672 82.3555C18.057 75.4453 13.8883 66.3375 13.1859 56.618H23.6531C25.0352 70.9141 36.4086 82.2648 50.7047 83.6695Z" fill="#79BF98"/>
</svg>
