<svg width="14" height="14" viewBox="0 0 14 14" fill="none" xmlns="http://www.w3.org/2000/svg">
<g clip-path="url(#clip0_611_830)">
<path d="M9.625 8.5625H12.25C12.8338 8.5625 13.3125 9.0412 13.3125 9.625V12.25C13.3125 12.8338 12.8338 13.3125 12.25 13.3125H9.625C9.0412 13.3125 8.5625 12.8338 8.5625 12.25V9.625C8.5625 9.0412 9.0412 8.5625 9.625 8.5625ZM12.5146 9.78516C12.2464 9.51691 11.8122 9.51692 11.5439 9.78516L10.6885 10.6406L10.3271 10.2793C10.0589 10.0111 9.62471 10.0112 9.35645 10.2793C9.08819 10.5476 9.08819 10.9817 9.35645 11.25L10.2002 12.0938V12.0947L10.2051 12.0986C10.3305 12.2174 10.5009 12.2939 10.6885 12.2939C10.8703 12.2939 11.0441 12.2263 11.1758 12.0947L12.5137 10.7549L12.5146 10.7559C12.7828 10.4877 12.7827 10.0534 12.5146 9.78516Z" stroke="#0A476D" stroke-width="0.5"/>
<path d="M1.78125 7.39697L1.60449 7.34229C1.07352 7.18004 0.6875 6.69567 0.6875 6.12061C0.6875 5.4143 1.26245 4.83936 1.96875 4.83936C2.54485 4.83936 3.03253 5.22599 3.19043 5.75439L3.24414 5.93311H4.35449C4.34949 5.99487 4.34375 6.05739 4.34375 6.12061C4.34375 6.18382 4.34949 6.24635 4.35449 6.30811H3.24414L3.19043 6.48584C3.06587 6.89564 2.74378 7.21773 2.33398 7.34229L2.15625 7.396V9.66162L2.33301 9.71533C2.86384 9.87753 3.24979 10.3622 3.25 10.937C3.25 11.6433 2.67505 12.2183 1.96875 12.2183C1.26245 12.2183 0.6875 11.6433 0.6875 10.937C0.68771 10.3611 1.07421 9.87314 1.60254 9.71533L1.78125 9.6626V7.39697Z" stroke="#0A476D" stroke-width="0.5"/>
<path d="M11.8439 3.23975L11.6662 3.18604C11.2562 3.0615 10.9333 2.73955 10.8088 2.32959L10.7551 2.15186H9.64569C9.65069 2.0901 9.65643 2.02757 9.65643 1.96436C9.65643 1.90114 9.65069 1.83861 9.64569 1.77686H10.7551L10.8088 1.6001C10.971 1.06912 11.4564 0.683105 12.0314 0.683105C12.7376 0.683211 13.3127 1.25812 13.3127 1.96436C13.3127 2.54039 12.926 3.02808 12.3976 3.18604L12.2189 3.23975V4.84912L12.3957 4.90283C12.9265 5.06503 13.3125 5.54966 13.3127 6.12451C13.3127 6.83075 12.7376 7.40566 12.0314 7.40576C11.3251 7.40576 10.7502 6.83082 10.7502 6.12451C10.7504 5.54854 11.1368 5.06061 11.6652 4.90283L11.8439 4.8501V3.23975Z" stroke="#0A476D" stroke-width="0.5"/>
<path d="M7 4.84375C7.5761 4.84375 8.06378 5.23038 8.22168 5.75879L8.27539 5.9375H9.38574C9.38074 5.99926 9.375 6.06178 9.375 6.125C9.375 6.18822 9.38074 6.25074 9.38574 6.3125H8.27637L8.22168 6.48926C8.05944 7.02023 7.57506 7.40625 7 7.40625C6.2937 7.40625 5.71875 6.8313 5.71875 6.125C5.71875 5.4187 6.2937 4.84375 7 4.84375Z" stroke="#0A476D" stroke-width="0.5"/>
<path d="M7.00018 10.75C7.10265 10.7501 7.18768 10.835 7.18768 10.9375C7.18768 11.04 7.10265 11.1249 7.00018 11.125H4.61444C4.61944 11.0632 4.62518 11.0007 4.62518 10.9375C4.62518 10.8743 4.61944 10.8118 4.61444 10.75H7.00018Z" stroke="#0A476D" stroke-width="0.5"/>
<path d="M7 0.6875C7.7063 0.6875 8.28125 1.26245 8.28125 1.96875C8.28125 2.67505 7.7063 3.25 7 3.25C6.4239 3.25 5.93622 2.86337 5.77832 2.33496L5.72461 2.15625H2.625C2.52245 2.15625 2.4375 2.0713 2.4375 1.96875C2.4375 1.8662 2.52245 1.78125 2.625 1.78125H5.72363L5.77832 1.60449C5.94056 1.07352 6.42494 0.6875 7 0.6875Z" stroke="#0A476D" stroke-width="0.5"/>
<path d="M0.875 1.78125H1.09375C1.1963 1.78125 1.28125 1.8662 1.28125 1.96875C1.28125 2.0713 1.1963 2.15625 1.09375 2.15625H0.875C0.772446 2.15625 0.6875 2.0713 0.6875 1.96875C0.6875 1.8662 0.772446 1.78125 0.875 1.78125Z" stroke="#0A476D" stroke-width="0.5"/>
</g>
<defs>
<clipPath id="clip0_611_830">
<rect width="14" height="14" fill="white"/>
</clipPath>
</defs>
</svg>
