<svg width="13" height="13" viewBox="0 0 13 13" fill="none" xmlns="http://www.w3.org/2000/svg">
<g clip-path="url(#clip0_611_817)">
<path d="M11.3958 0.870146H10.5816V0.578916C10.5816 0.259502 10.3218 -0.000244141 10.0024 -0.000244141H9.91505C9.59564 -0.000244141 9.33589 0.259502 9.33589 0.578916V0.870146H3.66363V0.578916C3.66363 0.259502 3.40388 -0.000244141 3.08447 -0.000244141H2.99712C2.67771 -0.000244141 2.41796 0.259502 2.41796 0.578916V0.870146H1.60369C1.07785 0.870146 0.650269 1.29798 0.650269 1.82356V12.0479C0.650269 12.5729 1.07734 13 1.60242 13H11.3969C11.9219 13 12.349 12.5729 12.349 12.0479V1.82356C12.349 1.29772 11.9214 0.870146 11.3956 0.870146H11.3958ZM9.71701 0.57917C9.71701 0.46999 9.80587 0.380869 9.91531 0.380869H10.0027C10.1118 0.380869 10.201 0.469736 10.201 0.57917V0.8704H9.71701V0.57917ZM2.79908 0.57917C2.79908 0.46999 2.88794 0.380869 2.99738 0.380869H3.08472C3.1939 0.380869 3.28302 0.469736 3.28302 0.57917V0.8704H2.79908V0.57917ZM1.60419 1.25101H2.41847V1.81087C2.41847 2.13028 2.67822 2.39003 2.99763 2.39003C3.10275 2.39003 3.18806 2.30472 3.18806 2.1996C3.18806 2.09448 3.10275 2.00917 2.99763 2.00917C2.89251 2.00917 2.79933 1.9203 2.79933 1.81087V1.25101H9.3364V1.81087C9.3364 2.13028 9.59615 2.39003 9.91556 2.39003C10.0207 2.39003 10.106 2.30472 10.106 2.1996C10.106 2.09448 10.0207 2.00917 9.91556 2.00917C9.81044 2.00917 9.71726 1.9203 9.71726 1.81087V1.25101H11.3961C11.7117 1.25101 11.9686 1.50796 11.9686 1.82356V3.59151H3.85431C3.74919 3.59151 3.66388 3.67683 3.66388 3.78194C3.66388 3.88706 3.74919 3.97237 3.85431 3.97237H11.9684V8.9012C11.9684 9.14089 11.7734 9.33589 11.5337 9.33589H10.2627C9.81298 9.33589 9.44711 9.70177 9.44711 10.1514V11.4225C9.44711 11.6622 9.2521 11.8572 9.01242 11.8572H1.60419C1.28859 11.8572 1.03164 11.6002 1.03164 11.2846V3.97237H3.09259C3.19771 3.97237 3.28302 3.88706 3.28302 3.78194C3.28302 3.67683 3.19771 3.59151 3.09259 3.59151H1.03164V1.82356C1.03164 1.50796 1.28859 1.25101 1.60419 1.25101ZM11.7257 9.6939L9.80486 11.6147C9.81984 11.553 9.82796 11.4888 9.82796 11.4227V10.1517C9.82796 9.912 10.023 9.717 10.2627 9.717H11.5337C11.5997 9.717 11.664 9.70888 11.7257 9.6939ZM11.3971 12.6192H1.60292C1.28783 12.6192 1.03164 12.363 1.03164 12.0479V12.0466C1.19109 12.1667 1.38939 12.2383 1.60419 12.2383H9.32498C9.57964 12.2383 9.81908 12.139 9.9991 11.959L11.9684 9.9897V12.0479C11.9684 12.363 11.7122 12.6192 11.3971 12.6192Z" fill="#09486E"/>
<path d="M2.16505 4.73407C1.96015 4.73407 1.79333 4.90089 1.79333 5.10579V6.01249C1.79333 6.21739 1.96015 6.38421 2.16505 6.38421H3.07175C3.27666 6.38421 3.44347 6.21739 3.44347 6.01249V5.10579C3.44347 4.90089 3.27666 4.73407 3.07175 4.73407H2.16505ZM3.06287 6.0036H2.17419V5.11493H3.06287V6.0036Z" fill="#09486E"/>
<path d="M4.75288 6.38445H5.65958C5.86448 6.38445 6.0313 6.21763 6.0313 6.01273V5.10603C6.0313 4.90113 5.86448 4.73431 5.65958 4.73431H4.75288C4.54798 4.73431 4.38116 4.90113 4.38116 5.10603V6.01273C4.38116 6.21763 4.54798 6.38445 4.75288 6.38445ZM4.76177 5.11492H5.65044V6.00359H4.76177V5.11492Z" fill="#09486E"/>
<path d="M7.34044 6.38445H8.24714C8.45204 6.38445 8.61886 6.21763 8.61886 6.01273V5.10603C8.61886 4.90113 8.45204 4.73431 8.24714 4.73431H7.34044C7.13554 4.73431 6.96872 4.90113 6.96872 5.10603V6.01273C6.96872 6.21763 7.13554 6.38445 7.34044 6.38445ZM7.34958 5.11492H8.23825V6.00359H7.34958V5.11492Z" fill="#09486E"/>
<path d="M9.92824 6.38445H10.8349C11.0398 6.38445 11.2067 6.21763 11.2067 6.01273V5.10603C11.2067 4.90113 11.0398 4.73431 10.8349 4.73431H9.92824C9.72333 4.73431 9.55652 4.90113 9.55652 5.10603V6.01273C9.55652 6.21763 9.72333 6.38445 9.92824 6.38445ZM9.93712 5.11492H10.8258V6.00359H9.93712V5.11492Z" fill="#09486E"/>
<path d="M3.07175 7.08984H2.16505C1.96015 7.08984 1.79333 7.25666 1.79333 7.46156V8.36826C1.79333 8.57316 1.96015 8.73998 2.16505 8.73998H3.07175C3.27666 8.73998 3.44347 8.57316 3.44347 8.36826V7.46156C3.44347 7.25666 3.27666 7.08984 3.07175 7.08984ZM3.06287 8.35938H2.17419V7.4707H3.06287V8.35938Z" fill="#09486E"/>
<path d="M7.34044 8.74023H8.24714C8.45204 8.74023 8.61886 8.57341 8.61886 8.36851V7.46181C8.61886 7.2569 8.45204 7.09009 8.24714 7.09009H7.34044C7.13554 7.09009 6.96872 7.2569 6.96872 7.46181V8.36851C6.96872 8.57341 7.13554 8.74023 7.34044 8.74023ZM7.34958 7.47069H8.23825V8.35937H7.34958V7.47069Z" fill="#09486E"/>
<path d="M9.92824 8.79656H10.8349C11.0398 8.79656 11.2067 8.62974 11.2067 8.42484V7.51814C11.2067 7.31324 11.0398 7.14642 10.8349 7.14642H9.92824C9.72333 7.14642 9.55652 7.31324 9.55652 7.51814V8.42484C9.55652 8.62974 9.72333 8.79656 9.92824 8.79656ZM9.93712 7.52703H10.8258V8.4157H9.93712V7.52703Z" fill="#09486E"/>
<path d="M3.07175 9.44531H2.16505C1.96015 9.44531 1.79333 9.61213 1.79333 9.81703V10.7237C1.79333 10.9286 1.96015 11.0954 2.16505 11.0954H3.07175C3.27666 11.0954 3.44347 10.9286 3.44347 10.7237V9.81703C3.44347 9.61213 3.27666 9.44531 3.07175 9.44531ZM3.06287 10.7148H2.17419V9.82617H3.06287V10.7148Z" fill="#09486E"/>
<path d="M5.65958 9.44531H4.75288C4.54798 9.44531 4.38116 9.61213 4.38116 9.81703V10.7237C4.38116 10.9286 4.54798 11.0954 4.75288 11.0954H5.65958C5.86448 11.0954 6.0313 10.9286 6.0313 10.7237V9.81703C6.0313 9.61213 5.86448 9.44531 5.65958 9.44531ZM5.65044 10.7148H4.76177V9.82617H5.65044V10.7148Z" fill="#09486E"/>
<path d="M7.3493 10.7148C7.34448 10.6138 7.2612 10.5336 7.15913 10.5336C7.05706 10.5336 6.9687 10.6189 6.9687 10.724C6.9687 10.9289 7.13551 11.0957 7.34042 11.0957H8.24712C8.45202 11.0957 8.61884 10.9289 8.61884 10.724V9.81703C8.61884 9.71775 8.58024 9.62432 8.50991 9.55424C8.43983 9.48416 8.34639 9.44531 8.24712 9.44531H7.34016C7.13526 9.44531 6.96844 9.61213 6.96844 9.81703V10.0786C6.96844 10.1837 7.05376 10.269 7.15887 10.269C7.26399 10.269 7.3493 10.1837 7.3493 10.0786V9.82617H8.23798V10.7148H7.34905H7.3493Z" fill="#09486E"/>
<path d="M4.38242 7.73553L4.77318 8.0194L4.62388 8.47871C4.60179 8.54676 4.62591 8.62141 4.68406 8.66356C4.74195 8.70571 4.82066 8.70571 4.87855 8.66356L5.26931 8.37969L5.66007 8.66356C5.68902 8.68463 5.7233 8.69504 5.75732 8.69504C5.79134 8.69504 5.82562 8.68438 5.85457 8.66356C5.91246 8.62141 5.93683 8.54676 5.91474 8.47871L5.76545 8.0194L6.15621 7.73553C6.2141 7.69338 6.23847 7.61873 6.21638 7.55069C6.19429 7.48264 6.13082 7.43643 6.05896 7.43643H5.57603L5.42673 6.97711C5.40464 6.90906 5.34117 6.86285 5.26931 6.86285C5.19746 6.86285 5.13423 6.90906 5.11189 6.97711L4.96259 7.43643H4.47966C4.40806 7.43643 4.34459 7.48264 4.32224 7.55069C4.30015 7.61873 4.32427 7.69338 4.38242 7.73553Z" fill="#09486E"/>
</g>
<defs>
<clipPath id="clip0_611_817">
<rect width="13" height="13" fill="white"/>
</clipPath>
</defs>
</svg>
