<?xml version="1.0" encoding="UTF-8"?>
<svg id="Layer_1" data-name="Layer 1" xmlns="http://www.w3.org/2000/svg" viewBox="0 0 475.71 122.63">
  <defs>
    <style>
      .cls-1 {
        fill: #5b4b43;
      }

      .cls-2 {
        fill: #09486d;
      }

      .cls-3 {
        fill: #09486e;
      }

      .cls-4 {
        fill: #79bd98;
      }
    </style>
  </defs>
  <g>
    <path class="cls-1" d="M167.66,119.18h-1.67v-7.04c0-1.21-.65-1.81-1.94-1.81h-3v6.44c0,.89-.27,1.55-.82,1.98-.45.35-1.03.53-1.75.53-.45,0-.88-.08-1.27-.25v-1.24c.3.1.59.15.88.15.87,0,1.3-.37,1.3-1.12v-6.5h-1.59v-1.37h5.98c1.43,0,2.44.25,3.02.74.58.49.87,1.28.87,2.37v7.12Z"/>
    <path class="cls-1" d="M171.98,114.29h-1.67v-5.34h1.67v5.34Z"/>
    <path class="cls-1" d="M182.84,119.18h-8.59v-1.29h5.89v-5.58c0-.98-.35-1.58-1.06-1.82-.45-.15-1.2-.22-2.26-.22-.77,0-1.58.05-2.45.14v-1.36c1.11-.09,2.07-.13,2.86-.13,1.35,0,2.36.16,3.05.49,1.02.5,1.53,1.49,1.53,2.98v5.5h1.03v1.29Z"/>
    <path class="cls-1" d="M191.72,119.18h-1.67v-6.79c0-.8-.2-1.35-.59-1.65-.39-.3-1.3-.45-2.73-.45-.8,0-1.62.05-2.45.14v-1.36c.68-.1,1.63-.15,2.83-.15,1.77,0,2.98.25,3.63.76.65.5.98,1.33.98,2.46v7.04Z"/>
    <path class="cls-1" d="M202.75,108.96l-.34,5.9c-.05,1.02-.22,1.81-.51,2.38-.31.62-.82,1.12-1.55,1.49-.57.3-1.39.45-2.45.45h-4.32v-1.29h2.41l-1.53-8.93h1.63l1.44,9c.94,0,1.59-.09,1.94-.28.48-.25.82-.58,1.02-.98.17-.36.28-.89.32-1.59l.34-6.16h1.61Z"/>
    <path class="cls-1" d="M213.88,119.18h-1.67v-6.85c0-.91-.28-1.5-.84-1.76-.42-.2-1.29-.3-2.62-.3-1.49,0-2.63.07-3.42.2v-1.38c1.07-.14,2.3-.21,3.67-.21,1.69,0,2.87.2,3.55.6.89.54,1.33,1.45,1.33,2.75v6.95ZM207.12,119.18h-1.67v-5.65h1.67v5.65Z"/>
    <path class="cls-1" d="M230.45,119.18h-1.67v-6.85c0-.91-.28-1.5-.84-1.76-.42-.2-1.29-.3-2.62-.3-1.49,0-2.63.07-3.42.2v-1.38c1.07-.14,2.3-.21,3.67-.21,1.69,0,2.87.2,3.55.6.89.54,1.33,1.45,1.33,2.75v6.95ZM223.68,119.18h-1.67v-5.65h1.67v5.65Z"/>
    <path class="cls-1" d="M240.13,119.18h-1.67v-6.79c0-.8-.2-1.35-.59-1.65-.39-.3-1.3-.45-2.73-.45-.8,0-1.62.05-2.45.14v-1.36c.68-.1,1.63-.15,2.83-.15,1.77,0,2.98.25,3.63.76.65.5.98,1.33.98,2.46v7.04Z"/>
    <path class="cls-1" d="M250.96,119.18h-8.59v-1.29h5.89v-5.58c0-.98-.35-1.58-1.06-1.82-.45-.15-1.2-.22-2.26-.22-.77,0-1.58.05-2.45.14v-1.36c1.11-.09,2.07-.13,2.86-.13,1.35,0,2.36.16,3.05.49,1.02.5,1.53,1.49,1.53,2.98v5.5h1.03v1.29Z"/>
    <path class="cls-1" d="M261.97,119.18h-1.67v-6.95c0-.86-.28-1.42-.83-1.69-.4-.18-1.22-.28-2.45-.28s-1.98.03-2.29.08v8.83h-1.67v-10.09c1.26-.13,2.64-.19,4.14-.19,1.87,0,3.13.27,3.79.8.66.54.98,1.38.98,2.53v6.95Z"/>
    <path class="cls-1" d="M272.85,119.18h-8.59v-1.29h5.89v-5.58c0-.98-.35-1.58-1.06-1.82-.45-.15-1.2-.22-2.26-.22-.77,0-1.58.05-2.45.14v-1.36c1.11-.09,2.07-.13,2.86-.13,1.35,0,2.36.16,3.05.49,1.02.5,1.53,1.49,1.53,2.98v5.5h1.03v1.29Z"/>
    <path class="cls-1" d="M288.61,119.18h-1.67v-6.85c0-.91-.28-1.5-.84-1.76-.42-.2-1.29-.3-2.62-.3-1.49,0-2.63.07-3.42.2v-1.38c1.07-.14,2.3-.21,3.67-.21,1.69,0,2.87.2,3.55.6.89.54,1.33,1.45,1.33,2.75v6.95ZM281.84,119.18h-1.67v-5.65h1.67v5.65Z"/>
    <path class="cls-1" d="M300.86,108.96l-.79,6.29c-.17,1.36-.58,2.35-1.22,2.97-.68.65-1.72.98-3.12.98h-.79v-1.31h.77c.88,0,1.51-.18,1.9-.54.39-.36.65-1.01.77-1.95l.62-5.07h-7.96v-1.37h9.81ZM293.23,122.63h-1.67v-10.04h1.67v10.04Z"/>
    <path class="cls-1" d="M305.19,119.18h-1.67v-10.22h1.67v10.22Z"/>
    <path class="cls-1" d="M317.51,112.23c0,2.66-.56,4.61-1.67,5.86-.72.81-1.79,1.22-3.2,1.22s-2.51-.37-3.24-1.11c-.67-.66-1.06-1.69-1.18-3.1l-.51-6.14h6.55c2.16,0,3.24,1.09,3.24,3.28ZM315.81,112.53c0-.85-.19-1.44-.58-1.77-.34-.29-.89-.43-1.67-.43h-4.04l.32,4.89c.09,1.35.53,2.21,1.33,2.58.36.15.85.23,1.46.23.9,0,1.58-.24,2.04-.73.36-.39.66-1.08.88-2.08.18-.86.27-1.76.27-2.68Z"/>
    <path class="cls-1" d="M328.35,108.96l-.34,5.9c-.05,1.02-.22,1.81-.51,2.38-.31.62-.82,1.12-1.55,1.49-.58.3-1.39.45-2.45.45h-4.32v-1.29h2.41l-1.53-8.93h1.63l1.44,9c.94,0,1.59-.09,1.94-.28.48-.25.82-.58,1.02-.98.17-.36.28-.89.32-1.59l.33-6.16h1.61Z"/>
    <path class="cls-1" d="M340.52,119.18h-1.67v-7.04c0-1.21-.65-1.81-1.95-1.81h-3v6.44c0,.89-.27,1.55-.82,1.98-.45.35-1.03.53-1.75.53-.45,0-.88-.08-1.27-.25v-1.24c.3.1.59.15.88.15.87,0,1.3-.37,1.3-1.12v-6.5h-1.59v-1.37h5.98c1.43,0,2.44.25,3.02.74.58.49.87,1.28.87,2.37v7.12Z"/>
    <path class="cls-1" d="M357.55,119.18h-8.91v-10.11c1-.1,2.45-.15,4.35-.15,1.65,0,2.8.23,3.46.69.73.5,1.1,1.46,1.1,2.86v6.71ZM355.88,117.87v-5.48c0-.99-.28-1.62-.85-1.88-.33-.15-1.1-.22-2.31-.22-1.44,0-2.25.01-2.41.04v7.54h5.58Z"/>
    <path class="cls-1" d="M362.05,119.18h-1.67v-10.22h1.67v10.22Z"/>
    <path class="cls-1" d="M372.64,110.33h-1.5v8.85h-1.67v-8.85h-5.46v-1.37h8.63v1.37Z"/>
    <path class="cls-1" d="M376.64,114.29h-1.67v-5.34h1.67v5.34Z"/>
    <path class="cls-1" d="M388.93,108.96l-.79,6.29c-.17,1.36-.58,2.35-1.22,2.97-.68.65-1.72.98-3.12.98h-.79v-1.31h.77c.88,0,1.51-.18,1.9-.54.39-.36.65-1.01.77-1.95l.62-5.07h-7.96v-1.37h9.81ZM381.3,122.63h-1.67v-10.04h1.67v10.04Z"/>
    <path class="cls-1" d="M399.35,108.96l-.8,6.42c-.17,1.3-.57,2.26-1.18,2.87-.66.63-1.63.94-2.9.94h-2.2v-1.31h2.1c.84,0,1.44-.17,1.82-.52.38-.35.63-.98.75-1.91l.6-5.11h-6.61v-4.76h1.65v3.39h6.77Z"/>
    <path class="cls-1" d="M416.8,119.18h-1.67v-7.04c0-1.21-.65-1.81-1.95-1.81h-3v6.44c0,.89-.27,1.55-.82,1.98-.45.35-1.03.53-1.75.53-.45,0-.88-.08-1.27-.25v-1.24c.3.1.59.15.88.15.87,0,1.3-.37,1.3-1.12v-6.5h-1.59v-1.37h5.98c1.43,0,2.44.25,3.02.74.58.49.87,1.28.87,2.37v7.12Z"/>
    <path class="cls-1" d="M421.2,119.18h-1.67v-10.22h1.67v10.22Z"/>
    <path class="cls-1" d="M432.99,114.03c0,2.04-.63,3.52-1.88,4.42-.75.54-1.9.8-3.46.8-1.46,0-2.58-.16-3.35-.47v-1.31c.77.27,1.88.41,3.32.41,1.31,0,2.24-.29,2.8-.87s.83-1.52.83-2.82v-.34c0-1.4-.28-2.38-.82-2.94-.49-.5-1.26-.75-2.32-.75h-.13c-1.74,0-2.61.75-2.61,2.25v.09c0,.66.18,1.16.55,1.49.3.26.68.39,1.14.39v1.12c-.08.01-.28.02-.59.02-.86,0-1.51-.22-1.96-.67-.58-.58-.87-1.4-.87-2.47s.35-1.87,1.06-2.51c.8-.73,1.92-1.09,3.37-1.09,3.28,0,4.92,1.69,4.92,5.06v.19Z"/>
    <path class="cls-1" d="M444.92,119.18h-1.67v-7.04c0-1.21-.65-1.81-1.95-1.81h-3v6.44c0,.89-.27,1.55-.82,1.98-.45.35-1.03.53-1.75.53-.45,0-.88-.08-1.27-.25v-1.24c.3.1.59.15.88.15.87,0,1.3-.37,1.3-1.12v-6.5h-1.59v-1.37h5.98c1.43,0,2.44.25,3.02.74.58.49.87,1.28.87,2.37v7.12Z"/>
    <path class="cls-1" d="M449.31,119.18h-1.67v-10.22h1.67v10.22Z"/>
    <path class="cls-1" d="M463.14,108.96l-.57,5.95c-.16,1.62-.64,2.75-1.45,3.4-.8.65-2.16.97-4.05.97-2,0-3.48-.08-4.45-.23l-.73-10.09h1.63l.32,5.28h.88c.66,0,1.09-.07,1.27-.2.31-.22.48-.67.51-1.35l.17-3.73h1.66l-.26,3.69c-.06,1.02-.34,1.74-.84,2.16-.43.37-1.12.56-2.04.56-.5,0-.93-.03-1.29-.09l.13,2.56c1.16.09,2.15.13,2.96.13,1.36,0,2.31-.18,2.86-.55.6-.4.95-1.15,1.06-2.26l.56-6.2h1.65Z"/>
    <path class="cls-1" d="M474.37,119.18h-1.67v-6.85c0-.91-.28-1.5-.84-1.76-.42-.2-1.29-.3-2.62-.3-1.49,0-2.63.07-3.42.2v-1.38c1.07-.14,2.3-.21,3.67-.21,1.69,0,2.87.2,3.55.6.89.54,1.33,1.45,1.33,2.75v6.95ZM467.6,119.18h-1.67v-5.65h1.67v5.65Z"/>
  </g>
  <g>
    <path class="cls-2" d="M185.98,41.14l5.81,5.7c-3.63,4.12-8.95,6.73-14.88,6.73-5.42,0-10.33-2.17-13.91-5.7-3.66-3.6-5.92-8.6-5.92-14.13s2.48-10.99,6.43-14.61c3.52-3.24,8.23-5.21,13.4-5.21,5.98,0,11.35,2.65,14.98,6.84l-5.93,5.56c-2.15-2.62-5.41-4.29-9.06-4.29-2.89,0-5.54,1.05-7.59,2.79-2.52,2.15-4.12,5.35-4.12,8.92,0,3.38,1.43,6.43,3.73,8.57,2.09,1.95,4.9,3.14,7.98,3.14,3.66,0,6.93-1.68,9.07-4.31Z"/>
    <g>
      <path class="cls-4" d="M257.06,52.67V14.8s3.64,0,3.64,0v37.88s-3.64,0-3.64,0Z"/>
      <path class="cls-4" d="M323.03,52.67v-22.5c0-8.17-4.23-12.92-11.21-12.92-6.39,0-11.96,4.9-11.96,13.37v22.06s-3.64,0-3.64,0v-22.73c0-7.87-4.31-12.7-11.07-12.7-6.76,0-12.11,5.94-12.11,13.59v21.83s-3.64,0-3.64,0V14.8s3.64,0,3.64,0v6.76c2.45-3.94,5.87-7.65,12.63-7.65,6.61,0,10.69,3.79,12.77,8.17,2.45-4.23,6.54-8.17,13.66-8.17,8.99,0,14.56,6.31,14.56,15.82v22.95s-3.64,0-3.64,0Z"/>
      <path class="cls-4" d="M354.82,53.56c-7.58,0-12.48-4.31-15.6-9.06v20.05s-3.64,0-3.64,0V14.8s3.64,0,3.64,0v8.47c3.27-4.98,8.1-9.36,15.6-9.36,9.13,0,18.42,7.35,18.42,19.68v.15c0,12.33-9.28,19.83-18.42,19.83ZM369.3,33.73c0-9.95-6.91-16.34-14.85-16.34-7.87,0-15.45,6.61-15.45,16.26v.15c0,9.73,7.57,16.26,15.45,16.26,8.24,0,14.85-6.02,14.85-16.19v-.15Z"/>
      <path class="cls-4" d="M406.14,52.67v-6.31c-2.6,3.64-7.28,7.2-14.48,7.2-7.06,0-14.63-4.01-14.63-11.88v-.15c0-7.87,6.76-12.33,16.56-12.33,5.27,0,8.91.67,12.55,1.63v-1.63c0-7.65-4.68-11.59-12.48-11.59-4.6,0-8.39,1.26-11.88,3.04l-1.34-3.19c4.16-1.93,8.24-3.27,13.44-3.27,9.73,0,15.82,5.05,15.82,14.85v23.62s-3.57,0-3.57,0ZM406.21,34.18c-3.19-.82-7.43-1.71-12.85-1.71-8.02,0-12.48,3.56-12.48,8.84v.15c0,5.5,5.2,8.69,10.99,8.69,7.72,0,14.33-4.75,14.33-11.66v-4.31Z"/>
      <path class="cls-4" d="M435.03,53.56c-10.92,0-19.31-9.06-19.31-19.68v-.15c0-10.62,8.47-19.83,19.31-19.83,7.13,0,11.59,3.27,15.15,6.98l-2.6,2.67c-3.27-3.34-6.98-6.24-12.63-6.24-8.61,0-15.3,7.2-15.3,16.26v.15c0,9.13,6.91,16.41,15.6,16.41,5.35,0,9.51-2.75,12.7-6.31l2.52,2.23c-3.86,4.38-8.47,7.5-15.45,7.5Z"/>
      <path class="cls-4" d="M468.9,53.34c-5.87,0-10.62-3.19-10.62-10.4v-24.8s-5.5,0-5.5,0v-3.34s5.5,0,5.5,0V2.69s3.64,0,3.64,0v12.11s13.29,0,13.29,0v3.34s-13.29,0-13.29,0v24.43c0,5.42,3.19,7.35,7.57,7.35,1.86,0,3.42-.37,5.57-1.34v3.42c-1.93.89-3.79,1.34-6.16,1.34Z"/>
      <rect class="cls-4" x="243.07" y="30.18" width="5.95" height="5.95" transform="translate(95.51 -164.27) rotate(45)"/>
    </g>
    <path class="cls-2" d="M215.2,13.91c-10.95,0-19.83,8.88-19.83,19.83s8.88,19.83,19.83,19.83,19.83-8.88,19.83-19.83-8.88-19.83-19.83-19.83ZM215.2,45.45c-6.47,0-11.71-5.24-11.71-11.71s5.24-11.71,11.71-11.71,11.71,5.24,11.71,11.71-5.24,11.71-11.71,11.71Z"/>
  </g>
  <g>
    <path class="cls-3" d="M144.14,57.73c-.29,17.79-14.64,32.47-32.42,33.15-6.04.23-11.75-1.13-16.74-3.69l10.84-10.62c1.43.33,2.91.52,4.43.53,10.26.08,19.05-7.81,20-18.03,1.1-11.87-8.21-21.83-19.85-21.83-5.16,0-9.86,1.96-13.4,5.17,0,.01-.02.02-.02.02l-1,.98s0,0,0,0l-9.71,9.49-9.76-9.76,9.47-9.27.09-.09,1.43-1.41L116.45,4c5.48-5.37,14.26-5.33,19.69.1h0s-20.2,19.76-20.2,19.76c16.19,2.67,28.49,16.86,28.2,33.86Z"/>
    <path class="cls-4" d="M71.92,47.63l-13.6-13.59-.02-.02c-6.54-6.94-16.01-11.12-26.41-10.56C14.3,24.4.27,39.02,0,56.63c-.26,16.99,12.04,31.16,28.22,33.82l-17.55,17.2.17.17c5.29,5.29,13.85,5.34,19.2.11l25.94-25.39h0s2.6-2.55,2.6-2.55l.02-.03,18.38-17.99,4.69-4.59-9.76-9.76ZM55.88,63.35l-7.66,7.51s-.04.03-.05.05c-.33.35-.67.68-1.03,1,0,0,0,0-.01.01-3.54,3.21-8.23,5.17-13.39,5.17-11.01,0-19.93-8.93-19.93-19.93s8.93-19.93,19.93-19.93c4.88,0,9.34,1.75,12.81,4.66.57.48,1.11.98,1.62,1.51l.02.02,14.32,13.44-6.63,6.5Z"/>
    <path class="cls-3" d="M99.17,52.08c5.26,5.26,5.22,13.8-.1,19.01l-2.72,2.66-9.99,9.79-32.31,31.66c-5.35,5.24-13.91,5.19-19.2-.1h0s42.82-41.96,42.82-41.96l10.6-10.39h0l3.13-3.07,7.76-7.61h0Z"/>
  </g>
  <g>
    <path class="cls-1" d="M157.48,69.32v-1.67h6.76v1.67h-6.76ZM159.99,76.86v-8.46h1.74v8.46h-1.74Z"/>
    <path class="cls-1" d="M164.87,76.86v-9.21h1.74v9.21h-1.74ZM168.67,76.86v-3.99c0-.33-.09-.58-.28-.75-.18-.18-.44-.26-.78-.26-.32,0-.57.09-.74.27-.18.18-.26.43-.26.76l-.13-1.46c.19-.4.42-.7.69-.92.27-.21.63-.32,1.06-.32.69,0,1.23.23,1.61.7s.57,1.13.57,1.98v3.99h-1.74Z"/>
    <path class="cls-1" d="M174.94,76.96c-.96,0-1.7-.26-2.22-.77-.53-.51-.79-1.24-.79-2.18v-.74c0-.98.25-1.74.76-2.28.5-.54,1.22-.8,2.14-.8.87,0,1.54.32,2.02.96.48.64.71,1.54.71,2.7v.43h-4.5v-1.17h2.92l-.02-.15c-.05-.38-.17-.67-.35-.88-.19-.21-.45-.31-.77-.31-.42,0-.74.12-.97.37s-.35.6-.35,1.06v.84c0,.45.13.79.38,1.04s.6.37,1.06.37c.23,0,.46-.04.69-.12.23-.08.44-.2.62-.35l1.13,1.01c-.34.31-.73.55-1.15.73-.43.17-.86.26-1.29.26Z"/>
    <path class="cls-1" d="M181.43,76.86v-9.21h1.74v9.21h-1.74ZM182.22,73.29v-1.67h2.95c.31,0,.57-.1.76-.31s.29-.48.29-.83-.1-.63-.29-.84c-.19-.21-.45-.31-.76-.31h-2.95v-1.67h2.9c.58,0,1.09.12,1.52.35s.77.56,1.01.99c.24.42.36.92.36,1.49s-.12,1.06-.36,1.48-.58.75-1.01.98-.94.35-1.52.35h-2.9Z"/>
    <path class="cls-1" d="M190.85,76.96c-.7,0-1.23-.17-1.58-.5-.35-.33-.53-.85-.53-1.53s.2-1.14.59-1.47c.39-.32.98-.49,1.76-.49h1.65l.09,1.33h-1.73c-.26,0-.46.05-.59.16-.13.1-.2.26-.2.47s.08.38.25.48.42.16.74.16c.46,0,.8-.05,1.03-.16.23-.11.34-.27.34-.49l.13.96c-.03.25-.14.46-.34.62-.2.16-.44.28-.73.36s-.59.12-.9.12ZM192.68,76.86v-4.17c0-.3-.1-.54-.3-.7-.2-.16-.49-.25-.86-.25-.25,0-.49.04-.73.12-.24.08-.45.19-.64.34l-1.08-1.06c.26-.3.61-.53,1.04-.7.43-.17.91-.25,1.43-.25.87,0,1.54.21,2.01.64s.71,1.03.71,1.81v4.23h-1.58Z"/>
    <path class="cls-1" d="M195.97,76.86v-6.58h1.86v6.58h-1.86ZM199.67,72.12c-.08-.08-.18-.15-.31-.19-.12-.04-.27-.06-.43-.06-.35,0-.62.11-.81.34-.19.23-.29.54-.29.94l-.13-1.71c.18-.39.42-.69.71-.91.29-.22.61-.33.95-.33.27,0,.52.04.74.13.22.09.42.21.58.38l-1.01,1.41Z"/>
    <path class="cls-1" d="M201,71.77v-1.48h3.22v1.48h-3.22ZM203.35,76.89c-.59,0-1.01-.15-1.27-.45-.26-.3-.39-.73-.39-1.29v-6.78h1.74v6.35c0,.16.03.28.1.37s.16.13.28.13h.43v1.67h-.87Z"/>
    <path class="cls-1" d="M205.74,76.86v-6.58h1.74v6.58h-1.74ZM209.55,76.86v-3.99c0-.33-.09-.58-.28-.75-.18-.18-.44-.26-.78-.26-.32,0-.57.09-.74.27-.18.18-.26.43-.26.76l-.13-1.46c.19-.4.42-.7.69-.92.27-.21.63-.32,1.06-.32.69,0,1.23.23,1.61.7s.57,1.13.57,1.98v3.99h-1.74Z"/>
    <path class="cls-1" d="M215.81,76.96c-.96,0-1.7-.26-2.22-.77-.53-.51-.79-1.24-.79-2.18v-.74c0-.98.25-1.74.76-2.28.5-.54,1.22-.8,2.14-.8.87,0,1.54.32,2.02.96.48.64.71,1.54.71,2.7v.43h-4.5v-1.17h2.92l-.02-.15c-.05-.38-.17-.67-.35-.88-.19-.21-.45-.31-.77-.31-.42,0-.74.12-.97.37s-.35.6-.35,1.06v.84c0,.45.13.79.38,1.04s.6.37,1.06.37c.23,0,.46-.04.69-.12.23-.08.44-.2.62-.35l1.13,1.01c-.34.31-.73.55-1.15.73-.43.17-.86.26-1.29.26Z"/>
    <path class="cls-1" d="M219.95,76.86v-6.58h1.86v6.58h-1.86ZM223.65,72.12c-.08-.08-.18-.15-.31-.19-.12-.04-.27-.06-.43-.06-.35,0-.62.11-.81.34-.19.23-.29.54-.29.94l-.13-1.71c.18-.39.42-.69.71-.91.29-.22.61-.33.95-.33.27,0,.52.04.74.13.22.09.42.21.58.38l-1.01,1.41Z"/>
    <path class="cls-1" d="M228.01,76.96c-.59,0-1.15-.08-1.69-.24s-.99-.38-1.37-.66l1.07-1.34c.32.2.65.36,1,.47.35.11.68.16.99.16.41,0,.72-.04.94-.14s.34-.22.34-.38c0-.19-.08-.33-.23-.4s-.36-.12-.6-.14c-.25-.02-.51-.05-.79-.09-.28-.04-.56-.08-.84-.14-.28-.05-.53-.14-.76-.26-.23-.12-.41-.3-.54-.54s-.2-.57-.2-.99c0-.66.23-1.18.7-1.54.47-.36,1.13-.54,1.99-.54.5,0,1,.07,1.49.22.49.15.92.36,1.31.63l-1.03,1.26c-.29-.16-.59-.29-.9-.37-.31-.09-.61-.13-.9-.13-.35,0-.62.04-.82.12s-.29.19-.29.34c0,.13.07.22.2.29.14.06.31.11.53.14s.46.06.71.09c.29.03.58.07.88.12s.57.14.81.26c.25.13.45.32.6.58.15.26.23.61.23,1.06,0,.69-.25,1.22-.74,1.6-.49.38-1.19.57-2.08.57Z"/>
    <path class="cls-1" d="M232.22,76.86v-9.21h1.74v9.21h-1.74ZM236.03,76.86v-3.99c0-.33-.09-.58-.28-.75-.18-.18-.44-.26-.78-.26-.32,0-.57.09-.74.27-.18.18-.26.43-.26.76l-.13-1.46c.19-.4.42-.7.69-.92.27-.21.63-.32,1.06-.32.69,0,1.23.23,1.61.7.38.47.57,1.13.57,1.98v3.99h-1.74Z"/>
    <path class="cls-1" d="M239.38,69.38v-1.74h1.74v1.74h-1.74ZM239.38,76.86v-6.58h1.74v6.58h-1.74Z"/>
    <path class="cls-1" d="M242.73,79.54v-9.25h1.74v9.25h-1.74ZM246,76.96c-.38,0-.72-.1-1-.29-.28-.2-.49-.47-.62-.83l.09-1.5c0,.22.04.4.11.55.08.15.19.27.33.35.15.08.32.12.53.12.33,0,.58-.11.76-.32s.27-.52.27-.91v-1.04c0-.4-.09-.71-.27-.94s-.43-.33-.76-.33c-.21,0-.38.04-.53.12-.15.08-.26.2-.33.36-.08.16-.11.35-.11.57l-.13-1.46c.18-.38.41-.68.7-.89.29-.21.61-.31.96-.31.71,0,1.25.25,1.63.75.38.5.58,1.21.58,2.12v1.05c0,.9-.19,1.6-.58,2.1-.38.5-.93.74-1.63.74Z"/>
    <path class="cls-1" d="M251.5,71.77v-1.48h3.54v1.48h-3.54ZM252.2,76.86v-7.47c0-.58.13-1.01.4-1.31.27-.29.68-.44,1.24-.44h1.2v1.55h-.74c-.13,0-.23.05-.29.15-.06.1-.09.22-.09.35v7.17h-1.74Z"/>
    <path class="cls-1" d="M258.58,76.96c-.9,0-1.6-.25-2.1-.75-.49-.5-.74-1.21-.74-2.11v-1.07c0-.9.25-1.6.74-2.09.49-.5,1.19-.74,2.1-.74s1.6.25,2.1.74c.5.49.74,1.19.74,2.09v1.09c0,.9-.25,1.6-.74,2.1-.49.5-1.19.74-2.1.74ZM258.58,75.28c.35,0,.62-.1.82-.31s.29-.49.29-.87v-1.09c0-.37-.1-.65-.29-.86s-.47-.3-.82-.3-.62.1-.81.3-.29.49-.29.86v1.09c0,.37.1.66.29.87s.46.31.81.31Z"/>
    <path class="cls-1" d="M263.01,76.86v-6.58h1.86v6.58h-1.86ZM266.71,72.12c-.08-.08-.18-.15-.31-.19-.12-.04-.27-.06-.43-.06-.35,0-.62.11-.81.34-.19.23-.29.54-.29.94l-.13-1.71c.18-.39.42-.69.71-.91s.61-.33.95-.33c.27,0,.52.04.74.13.22.09.42.21.58.38l-1.01,1.41Z"/>
    <path class="cls-1" d="M272.55,76.96c-.7,0-1.23-.17-1.58-.5-.35-.33-.53-.85-.53-1.53s.2-1.14.59-1.47c.39-.32.98-.49,1.76-.49h1.65l.09,1.33h-1.73c-.26,0-.46.05-.59.16s-.2.26-.2.47.08.38.25.48.42.16.75.16c.46,0,.8-.05,1.03-.16.23-.11.34-.27.34-.49l.13.96c-.03.25-.14.46-.34.62-.2.16-.44.28-.73.36s-.59.12-.9.12ZM274.38,76.86v-4.17c0-.3-.1-.54-.3-.7-.2-.16-.49-.25-.86-.25-.25,0-.49.04-.73.12-.24.08-.45.19-.64.34l-1.08-1.06c.26-.3.61-.53,1.04-.7.43-.17.91-.25,1.43-.25.87,0,1.54.21,2.01.64.47.43.71,1.03.71,1.81v4.23h-1.58Z"/>
    <path class="cls-1" d="M280.02,76.86v-9.21h1.74v9.21h-1.74ZM280.78,76.86v-1.67h2.94c.4,0,.71-.1.92-.29.22-.19.33-.46.33-.81v-.02c0-.35-.11-.62-.33-.81-.22-.19-.53-.29-.92-.29h-2.94v-1.67h2.94c.36,0,.64-.09.83-.27s.29-.44.29-.77c0-.3-.1-.53-.29-.69s-.47-.24-.83-.24h-2.94v-1.67h3c.9,0,1.59.22,2.08.65.49.44.74,1.05.74,1.84,0,.54-.16.98-.47,1.33-.31.35-.76.57-1.33.67.61.08,1.09.32,1.42.7.34.38.5.88.5,1.49v.02c0,.8-.25,1.42-.74,1.85-.49.44-1.19.66-2.09.66h-3.11Z"/>
    <path class="cls-1" d="M288.27,76.86v-6.58h1.86v6.58h-1.86ZM291.97,72.12c-.08-.08-.18-.15-.31-.19-.12-.04-.27-.06-.43-.06-.35,0-.62.11-.81.34-.19.23-.29.54-.29.94l-.13-1.71c.18-.39.42-.69.71-.91s.61-.33.95-.33c.27,0,.52.04.74.13.22.09.42.21.58.38l-1.01,1.41Z"/>
    <path class="cls-1" d="M296.5,76.96c-.96,0-1.7-.26-2.22-.77s-.79-1.24-.79-2.18v-.74c0-.98.25-1.74.76-2.28.5-.54,1.22-.8,2.14-.8.87,0,1.54.32,2.02.96.47.64.71,1.54.71,2.7v.43h-4.5v-1.17h2.92l-.02-.15c-.05-.38-.17-.67-.36-.88-.19-.21-.45-.31-.77-.31-.42,0-.74.12-.97.37-.23.25-.35.6-.35,1.06v.84c0,.45.13.79.38,1.04s.6.37,1.06.37c.23,0,.46-.04.69-.12.23-.08.44-.2.62-.35l1.13,1.01c-.34.31-.73.55-1.15.73-.43.17-.86.26-1.29.26Z"/>
    <path class="cls-1" d="M302.43,76.96c-.7,0-1.23-.17-1.58-.5-.35-.33-.53-.85-.53-1.53s.2-1.14.59-1.47c.39-.32.98-.49,1.76-.49h1.65l.09,1.33h-1.73c-.26,0-.46.05-.59.16s-.2.26-.2.47.08.38.25.48.42.16.75.16c.46,0,.8-.05,1.03-.16.23-.11.34-.27.34-.49l.13.96c-.03.25-.14.46-.34.62-.2.16-.44.28-.73.36s-.59.12-.9.12ZM304.26,76.86v-4.17c0-.3-.1-.54-.3-.7-.2-.16-.49-.25-.86-.25-.25,0-.49.04-.73.12-.24.08-.45.19-.64.34l-1.08-1.06c.26-.3.61-.53,1.04-.7.43-.17.91-.25,1.43-.25.87,0,1.54.21,2.01.64.47.43.71,1.03.71,1.81v4.23h-1.58Z"/>
    <path class="cls-1" d="M307.55,76.86v-9.21h1.74v9.21h-1.74ZM308.59,76.41l-.23-1.91,3.07-4.21h1.84l-4.67,6.12ZM311.58,76.86l-1.66-3.4,1.43-.86,2.24,4.26h-2.01Z"/>
    <path class="cls-1" d="M313.9,71.77v-1.48h3.22v1.48h-3.22ZM316.25,76.89c-.59,0-1.01-.15-1.27-.45s-.39-.73-.39-1.29v-6.78h1.74v6.35c0,.16.03.28.09.37s.16.13.28.13h.43v1.67h-.87Z"/>
    <path class="cls-1" d="M318.64,76.86v-9.21h1.74v9.21h-1.74ZM322.45,76.86v-3.99c0-.33-.09-.58-.28-.75-.18-.18-.44-.26-.78-.26s-.57.09-.75.27c-.17.18-.26.43-.26.76l-.13-1.46c.19-.4.42-.7.69-.92.27-.21.63-.32,1.06-.32.69,0,1.23.23,1.61.7.38.47.57,1.13.57,1.98v3.99h-1.74Z"/>
    <path class="cls-1" d="M325.89,76.86v-6.58h1.86v6.58h-1.86ZM329.6,72.12c-.08-.08-.18-.15-.31-.19-.12-.04-.27-.06-.43-.06-.35,0-.62.11-.81.34-.19.23-.29.54-.29.94l-.13-1.71c.18-.39.42-.69.71-.91s.61-.33.95-.33c.27,0,.52.04.74.13.22.09.42.21.58.38l-1.01,1.41Z"/>
    <path class="cls-1" d="M333.96,76.96c-.9,0-1.6-.25-2.1-.75-.49-.5-.74-1.21-.74-2.11v-1.07c0-.9.25-1.6.74-2.09.49-.5,1.19-.74,2.1-.74s1.6.25,2.1.74c.5.49.74,1.19.74,2.09v1.09c0,.9-.25,1.6-.74,2.1-.49.5-1.19.74-2.1.74ZM333.95,75.28c.35,0,.62-.1.82-.31s.29-.49.29-.87v-1.09c0-.37-.1-.65-.29-.86s-.47-.3-.82-.3-.62.1-.81.3-.29.49-.29.86v1.09c0,.37.1.66.29.87s.46.31.81.31Z"/>
    <path class="cls-1" d="M339.96,70.28v4c0,.32.09.56.27.74.18.17.43.26.76.26s.58-.09.75-.27c.18-.18.26-.44.26-.77l.09,1.44c-.11.33-.3.62-.58.88-.28.26-.64.39-1.07.39-.71,0-1.25-.23-1.64-.68-.38-.46-.58-1.1-.58-1.93v-4.06h1.74ZM342,76.86v-6.58h1.73v6.58h-1.73Z"/>
    <path class="cls-1" d="M347.46,76.96c-.7,0-1.25-.25-1.63-.74-.39-.5-.58-1.2-.58-2.1v-1.05c0-.91.19-1.62.58-2.12.39-.5.93-.75,1.63-.75.35,0,.67.1.96.31.29.21.52.51.7.89l-.13,1.46c0-.22-.04-.41-.11-.57s-.19-.28-.33-.36c-.15-.08-.32-.12-.53-.12-.33,0-.58.11-.76.33s-.27.53-.27.94v1.04c0,.39.09.7.27.91s.43.32.76.32c.21,0,.38-.04.53-.12.15-.08.26-.2.33-.35.08-.15.11-.34.11-.55l.09,1.5c-.13.36-.34.64-.62.83-.28.2-.61.29-1,.29ZM347.77,79.54c-.52,0-.99-.09-1.4-.28-.41-.18-.73-.44-.96-.78l1.17-1.07c.15.16.33.28.53.37s.42.13.65.13c.35,0,.64-.1.88-.29.24-.19.36-.47.36-.83v-6.51h1.74v6.38c0,.91-.26,1.62-.77,2.12-.51.5-1.24.75-2.18.75Z"/>
    <path class="cls-1" d="M352.44,76.86v-9.21h1.74v9.21h-1.74ZM356.24,76.86v-3.99c0-.33-.09-.58-.28-.75-.18-.18-.44-.26-.78-.26s-.57.09-.75.27c-.17.18-.26.43-.26.76l-.13-1.46c.19-.4.42-.7.69-.92.27-.21.63-.32,1.06-.32.69,0,1.23.23,1.61.7.38.47.57,1.13.57,1.98v3.99h-1.74Z"/>
    <path class="cls-1" d="M361.81,69.38v-1.74h1.74v1.74h-1.74ZM361.81,76.86v-6.58h1.74v6.58h-1.74Z"/>
    <path class="cls-1" d="M365.16,76.86v-6.58h1.74v6.58h-1.74ZM368.97,76.86v-3.99c0-.33-.09-.58-.28-.75-.18-.18-.44-.26-.78-.26s-.57.09-.75.27c-.17.18-.26.43-.26.76l-.13-1.46c.19-.4.42-.7.69-.92.27-.21.63-.32,1.06-.32.69,0,1.23.23,1.61.7.38.47.57,1.13.57,1.98v3.99h-1.74Z"/>
    <path class="cls-1" d="M373.87,76.86l3.52-9.21h1.1l3.52,9.21h-1.87l-2.21-6.29-2.21,6.29h-1.87ZM375.56,75.39v-1.67h4.85v1.67h-4.85Z"/>
    <path class="cls-1" d="M383.04,76.86v-6.58h1.86v6.58h-1.86ZM386.74,72.12c-.08-.08-.18-.15-.31-.19-.12-.04-.27-.06-.43-.06-.35,0-.62.11-.81.34-.19.23-.29.54-.29.94l-.13-1.71c.18-.39.42-.69.71-.91s.61-.33.95-.33c.27,0,.52.04.74.13.22.09.42.21.58.38l-1.01,1.41Z"/>
    <path class="cls-1" d="M390.36,76.96c-.7,0-1.23-.17-1.58-.5-.35-.33-.53-.85-.53-1.53s.2-1.14.59-1.47c.39-.32.98-.49,1.76-.49h1.65l.09,1.33h-1.73c-.26,0-.46.05-.59.16s-.2.26-.2.47.08.38.25.48.42.16.75.16c.46,0,.8-.05,1.03-.16.23-.11.34-.27.34-.49l.13.96c-.03.25-.14.46-.34.62-.2.16-.44.28-.73.36s-.59.12-.9.12ZM392.19,76.86v-4.17c0-.3-.1-.54-.3-.7-.2-.16-.49-.25-.86-.25-.25,0-.49.04-.73.12-.24.08-.45.19-.64.34l-1.08-1.06c.26-.3.61-.53,1.04-.7.43-.17.91-.25,1.43-.25.87,0,1.54.21,2.01.64.47.43.71,1.03.71,1.81v4.23h-1.58Z"/>
    <path class="cls-1" d="M395.48,76.86v-9.21h1.74v9.21h-1.74ZM398.75,76.96c-.38,0-.72-.1-1-.29-.28-.2-.49-.47-.62-.83l.09-1.5c0,.22.04.4.11.55.08.15.19.27.33.35.15.08.32.12.53.12.33,0,.58-.11.76-.32s.27-.52.27-.91v-1.04c0-.4-.09-.71-.27-.94s-.43-.33-.76-.33c-.21,0-.38.04-.53.12-.15.08-.26.2-.33.36-.08.16-.11.35-.11.57l-.13-1.46c.18-.38.41-.68.7-.89.29-.21.61-.31.96-.31.71,0,1.25.25,1.63.75.38.5.58,1.21.58,2.12v1.05c0,.9-.19,1.6-.58,2.1-.38.5-.93.74-1.63.74Z"/>
    <path class="cls-1" d="M404.89,76.86v-9.21h1.74v9.21h-1.74ZM405.52,69.32v-1.67h5.54v1.67h-5.54ZM405.52,73.12v-1.67h4.85v1.67h-4.85ZM405.52,76.86v-1.67h5.54v1.67h-5.54Z"/>
    <path class="cls-1" d="M412.52,76.86v-6.58h1.74v6.58h-1.74ZM416.35,76.86v-3.8c0-.38-.09-.68-.28-.89-.19-.21-.46-.31-.81-.31-.32,0-.57.09-.75.27-.17.18-.26.43-.26.76l-.13-1.46c.19-.4.43-.7.72-.92.29-.21.63-.32,1.04-.32.71,0,1.25.25,1.64.75.38.5.58,1.21.58,2.12v3.8h-1.74ZM420.19,76.86v-3.8c0-.38-.09-.68-.28-.89s-.44-.31-.78-.31-.59.1-.77.3c-.18.2-.27.48-.27.85l-.32-1.52c.21-.42.48-.74.81-.97.33-.23.7-.34,1.1-.34.71,0,1.27.25,1.66.75.39.5.59,1.21.59,2.12v3.8h-1.74Z"/>
    <path class="cls-1" d="M423.64,79.54v-9.25h1.74v9.25h-1.74ZM426.9,76.96c-.38,0-.72-.1-1-.29-.28-.2-.49-.47-.62-.83l.09-1.5c0,.22.04.4.11.55.08.15.19.27.33.35.15.08.32.12.53.12.33,0,.58-.11.76-.32s.27-.52.27-.91v-1.04c0-.4-.09-.71-.27-.94s-.43-.33-.76-.33c-.21,0-.38.04-.53.12-.15.08-.26.2-.33.36-.08.16-.11.35-.11.57l-.13-1.46c.18-.38.41-.68.7-.89.29-.21.61-.31.96-.31.71,0,1.25.25,1.63.75.38.5.58,1.21.58,2.12v1.05c0,.9-.19,1.6-.58,2.1-.38.5-.93.74-1.63.74Z"/>
    <path class="cls-1" d="M432.43,67.65v7.04c0,.16.04.28.14.37.09.09.22.13.39.13h.29v1.67h-.89c-.53,0-.94-.15-1.23-.46-.29-.3-.44-.73-.44-1.29v-7.47h1.74Z"/>
    <path class="cls-1" d="M437.1,76.96c-.9,0-1.6-.25-2.1-.75-.49-.5-.74-1.21-.74-2.11v-1.07c0-.9.25-1.6.74-2.09.49-.5,1.19-.74,2.1-.74s1.6.25,2.1.74c.5.49.74,1.19.74,2.09v1.09c0,.9-.25,1.6-.74,2.1-.49.5-1.19.74-2.1.74ZM437.1,75.28c.35,0,.62-.1.82-.31s.29-.49.29-.87v-1.09c0-.37-.1-.65-.29-.86s-.47-.3-.82-.3-.62.1-.81.3-.29.49-.29.86v1.09c0,.37.1.66.29.87s.46.31.81.31Z"/>
    <path class="cls-1" d="M443.45,77.4l-2.75-7.12h1.63l2.21,5.72-1.1,1.4ZM445.14,70.28h1.63l-2.93,8.12c-.17.45-.39.77-.68.94-.29.17-.7.26-1.21.26h-.39v-1.69h.39c.18,0,.33-.04.46-.12.12-.08.22-.21.29-.41l2.44-7.11Z"/>
    <path class="cls-1" d="M447.67,76.86v-6.58h1.74v6.58h-1.74ZM451.5,76.86v-3.8c0-.38-.09-.68-.28-.89-.19-.21-.46-.31-.81-.31-.32,0-.57.09-.75.27-.17.18-.26.43-.26.76l-.13-1.46c.19-.4.43-.7.72-.92.29-.21.63-.32,1.04-.32.71,0,1.25.25,1.64.75.38.5.58,1.21.58,2.12v3.8h-1.74ZM455.34,76.86v-3.8c0-.38-.09-.68-.28-.89s-.44-.31-.78-.31-.59.1-.77.3c-.18.2-.27.48-.27.85l-.32-1.52c.21-.42.48-.74.81-.97.33-.23.7-.34,1.1-.34.71,0,1.27.25,1.66.75.39.5.59,1.21.59,2.12v3.8h-1.74Z"/>
    <path class="cls-1" d="M461.6,76.96c-.96,0-1.7-.26-2.22-.77s-.79-1.24-.79-2.18v-.74c0-.98.25-1.74.76-2.28.5-.54,1.22-.8,2.14-.8.87,0,1.54.32,2.02.96.47.64.71,1.54.71,2.7v.43h-4.5v-1.17h2.92l-.02-.15c-.05-.38-.17-.67-.36-.88-.19-.21-.45-.31-.77-.31-.42,0-.74.12-.97.37-.23.25-.35.6-.35,1.06v.84c0,.45.13.79.38,1.04s.6.37,1.06.37c.23,0,.46-.04.69-.12.23-.08.44-.2.62-.35l1.13,1.01c-.34.31-.73.55-1.15.73-.43.17-.86.26-1.29.26Z"/>
    <path class="cls-1" d="M465.74,76.86v-6.58h1.74v6.58h-1.74ZM469.55,76.86v-3.99c0-.33-.09-.58-.28-.75-.18-.18-.44-.26-.78-.26s-.57.09-.75.27c-.17.18-.26.43-.26.76l-.13-1.46c.19-.4.42-.7.69-.92.27-.21.63-.32,1.06-.32.69,0,1.23.23,1.61.7.38.47.57,1.13.57,1.98v3.99h-1.74Z"/>
    <path class="cls-1" d="M472.49,71.77v-1.48h3.22v1.48h-3.22ZM474.83,76.89c-.59,0-1.01-.15-1.27-.45s-.39-.73-.39-1.29v-6.78h1.74v6.35c0,.16.03.28.09.37s.16.13.28.13h.43v1.67h-.87Z"/>
  </g>
  <g>
    <path class="cls-1" d="M166.26,97.67c-4.55,0-6.38-1.8-6.38-5.37,0-1.17.3-2.43.63-3.16l1.52-.28c-.45.89-.74,2.19-.74,3.25,0,2.92,1.12,4.42,5.15,4.42h1.73v-7.45s1.56-.35,3.23-.35c3.05,0,4.11,1.51,4.11,4.05v3.75h1.97v1.13h-3.36v-4.67c0-2.25-.85-3.14-2.86-3.14-.84,0-1.69.19-1.69.19v7.62h-3.31ZM164.7,101.33c-.48,0-.87-.37-.87-.89,0-.48.39-.89.87-.89s.89.39.89.89-.39.89-.89.89ZM167.32,101.33c-.48,0-.89-.37-.89-.89,0-.48.41-.89.89-.89s.89.39.89.89-.41.89-.89.89Z"/>
    <path class="cls-1" d="M177.2,96.54h2.77v-7.6h1.41v8.74h-4.18v-1.13ZM178.6,100.46c0-.5.39-.89.89-.89s.89.37.89.89-.39.89-.89.89-.89-.37-.89-.89Z"/>
    <path class="cls-1" d="M181.87,102.17l.2-1.19c.61.22,1.3.37,2.01.37,1.65,0,2.66-.82,2.66-3.44v-8.98h1.43v7.6h2.14v1.13h-2.14v.09c0,2.75-1.04,4.7-4.2,4.7-.74,0-1.51-.13-2.1-.3Z"/>
    <path class="cls-1" d="M190.02,96.54h.59c2.16,0,3.98-.45,5.33-1.13-1.34-1.28-2.66-2.75-4.65-3.42l.11-.98c1.45-1.1,3.51-2.29,5.39-2.29,2.43,0,3.46,1.36,3.46,2.83,0,1.32-.8,2.79-2.32,3.94.84.63,1.75,1.06,2.88,1.06h1.1v1.13h-1.32c-1.56,0-2.71-.63-3.75-1.49-1.6.89-3.74,1.49-6.38,1.49h-.45v-1.13ZM197.05,94.73c1.17-.87,1.8-1.95,1.8-3.01s-.65-1.93-2.19-1.93c-1.38,0-3.01,1-3.9,1.64,1.75.67,2.99,2.12,4.29,3.31Z"/>
    <path class="cls-1" d="M201.64,96.54h2.71v-11.97h1.41v13.1h-4.13v-1.13Z"/>
    <path class="cls-1" d="M209.44,84.57h1.41v13.1h-1.41v-13.1Z"/>
    <path class="cls-1" d="M217.53,99.31c0-2.21,2.51-3.23,4.72-4.31-1.21-1.17-2.44-2.4-4.22-3.01l.11-.98c1.45-1.1,3.51-2.29,5.39-2.29,2.43,0,3.46,1.36,3.46,2.83,0,1.69-1.23,2.77-2.71,3.62.95.8,1.97,1.38,3.27,1.38h1.1v1.13h-1.32c-1.8,0-3.05-.82-4.22-1.88-2.04,1.02-4.14,1.86-4.14,3.4,0,1.23,1.06,2.16,3.74,2.16,1.41,0,2.96-.26,2.96-.26l.09,1.08s-1.67.32-3.22.32c-3.57,0-5-1.45-5-3.18ZM223.42,94.4c1.23-.69,2.16-1.49,2.16-2.68,0-1.06-.65-1.93-2.19-1.93-1.38,0-3.01,1-3.9,1.64,1.58.61,2.75,1.86,3.94,2.97Z"/>
    <path class="cls-1" d="M231.06,95.79c-.24,1.06-1.19,1.88-2.79,1.88h-.28v-1.13c1.36,0,2.32-.54,2.32-3.25,0-2.42,1.56-4.55,4.57-4.55,2.58,0,3.9,1.47,3.9,4.13v3.68h1.97v1.13h-5.35c-2.73,0-3.74-.76-4.35-1.88ZM237.39,93.15c0-2.38-.99-3.29-2.64-3.29-1.86,0-2.99,1.3-2.99,3.31,0,2.29,1.06,3.36,3.62,3.36h2.01v-3.38Z"/>
    <path class="cls-1" d="M240.48,96.54h2.77v-7.6h1.41v7.6h2.01v1.13h-6.19v-1.13ZM241.48,86.22c0-.5.39-.89.87-.89s.89.39.89.89-.39.89-.89.89-.87-.39-.87-.89ZM244.08,86.22c0-.5.41-.89.89-.89s.89.39.89.89-.41.89-.89.89-.89-.39-.89-.89Z"/>
    <path class="cls-1" d="M246.39,96.54h7.86c.09-.72.15-1.43.15-2.1,0-2.99-1.04-4.44-4.26-4.44-.72,0-1.32.04-2.03.13v-1.12c.58-.07,1.34-.15,2.16-.15,4.07,0,5.54,1.9,5.54,5.43,0,.63-.06,1.39-.15,2.25h1.84v1.13h-11.11v-1.13ZM249.88,100.46c0-.5.39-.89.89-.89s.89.37.89.89-.39.89-.89.89-.89-.37-.89-.89Z"/>
    <path class="cls-1" d="M259.92,95.79c-.24,1.06-1.19,1.88-2.79,1.88h-.28v-1.13c1.36,0,2.32-.54,2.32-3.25,0-2.42,1.56-4.55,4.57-4.55,2.58,0,3.9,1.47,3.9,4.13v3.68h1.97v1.13h-5.35c-2.73,0-3.74-.76-4.35-1.88ZM266.25,93.15c0-2.38-.98-3.29-2.64-3.29-1.86,0-2.99,1.3-2.99,3.31,0,2.29,1.06,3.36,3.62,3.36h2.01v-3.38Z"/>
    <path class="cls-1" d="M269.34,96.54h2.71v-11.97h1.41v13.1h-4.13v-1.13Z"/>
    <path class="cls-1" d="M277.14,84.57h1.41v13.1h-1.41v-13.1Z"/>
    <path class="cls-1" d="M292.09,97.67c-4.55,0-6.38-1.8-6.38-5.37,0-1.17.3-2.43.63-3.16l1.52-.28c-.45.89-.74,2.19-.74,3.25,0,2.92,1.11,4.42,5.15,4.42h1.73v-7.45s1.56-.35,3.23-.35c3.05,0,4.11,1.51,4.11,4.05v3.75h1.97v1.13h-3.36v-4.67c0-2.25-.85-3.14-2.86-3.14-.84,0-1.69.19-1.69.19v7.62h-3.31ZM290.52,101.33c-.48,0-.87-.37-.87-.89,0-.48.39-.89.87-.89s.89.39.89.89-.39.89-.89.89ZM293.14,101.33c-.48,0-.89-.37-.89-.89,0-.48.41-.89.89-.89s.89.39.89.89-.41.89-.89.89Z"/>
    <path class="cls-1" d="M303.03,97.67v-1.13h1.64c.65,0,1.08.07,1.08.07-.99-.59-1.51-1.65-1.51-3.33,0-2.42,1.56-4.55,4.57-4.55,2.58,0,3.9,1.47,3.9,4.13v4.81h-9.68ZM311.32,93.15c0-2.38-.99-3.29-2.64-3.29-1.86,0-2.99,1.3-2.99,3.31,0,2.29,1.06,3.36,3.62,3.36h2.01v-3.38ZM307.73,85.85c0-.5.39-.89.89-.89s.89.39.89.89-.39.91-.89.91-.89-.39-.89-.91Z"/>
    <path class="cls-1" d="M327.11,84.57h1.41v11.97h2.08v1.13h-2.14c-.32,3.07-2.12,4.29-4.37,4.29-2.4,0-4.48-1.3-4.48-5.15,0-1.26.15-2.49.45-3.61l1.47-.28c-.33,1.25-.5,2.51-.5,3.75,0,3.31,1.67,4.14,3.22,4.14s2.86-.95,2.86-4v-12.27Z"/>
    <path class="cls-1" d="M333.02,95.79c-.24,1.06-1.19,1.88-2.79,1.88h-.28v-1.13c1.36,0,2.32-.54,2.32-3.25,0-2.42,1.56-4.55,4.57-4.55,2.58,0,3.9,1.47,3.9,4.13v3.68h1.97v1.13h-5.35c-2.73,0-3.74-.76-4.35-1.88ZM339.36,93.15c0-2.38-.98-3.29-2.64-3.29-1.86,0-2.99,1.3-2.99,3.31,0,2.29,1.06,3.36,3.62,3.36h2.01v-3.38Z"/>
    <path class="cls-1" d="M342.44,96.54h.59c2.16,0,3.98-.45,5.33-1.13-1.34-1.28-2.66-2.75-4.65-3.42l.11-.98c1.45-1.1,3.51-2.29,5.39-2.29,2.43,0,3.46,1.36,3.46,2.83,0,1.32-.8,2.79-2.32,3.94.84.63,1.75,1.06,2.88,1.06h1.1v1.13h-1.32c-1.56,0-2.71-.63-3.75-1.49-1.6.89-3.74,1.49-6.37,1.49h-.45v-1.13ZM349.47,94.73c1.17-.87,1.8-1.95,1.8-3.01s-.65-1.93-2.19-1.93c-1.38,0-3.01,1-3.9,1.64,1.75.67,2.99,2.12,4.29,3.31Z"/>
    <path class="cls-1" d="M354.06,96.54h2.71v-11.97h1.41v13.1h-4.13v-1.13Z"/>
    <path class="cls-1" d="M361.86,84.57h1.41v13.1h-1.41v-13.1Z"/>
    <path class="cls-1" d="M368.85,102.17l.21-1.19c.61.22,1.3.37,2.01.37,1.65,0,2.66-.82,2.66-3.44v-8.98h1.43v7.6h2.14v1.13h-2.14v.09c0,2.75-1.04,4.7-4.2,4.7-.74,0-1.51-.13-2.1-.3ZM373.52,85.87c0-.5.39-.89.89-.89s.89.39.89.89-.39.91-.89.91-.89-.39-.89-.91Z"/>
    <path class="cls-1" d="M377.01,96.54h3.83v-7.6h1.41v8.74h-5.24v-1.13ZM378.57,101.33c-.48,0-.87-.37-.87-.89,0-.48.39-.89.87-.89s.89.39.89.89-.39.89-.89.89ZM381.19,101.33c-.48,0-.89-.37-.89-.89,0-.48.41-.89.89-.89s.89.39.89.89-.41.89-.89.89Z"/>
    <path class="cls-1" d="M382.81,102.17l.21-1.19c.61.22,1.3.37,2.01.37,1.65,0,2.66-.82,2.66-3.44v-8.98h1.43v7.6h2.14v1.13h-2.14v.09c0,2.75-1.04,4.7-4.2,4.7-.74,0-1.51-.13-2.1-.3ZM387.47,85.87c0-.5.39-.89.89-.89s.89.39.89.89-.39.91-.89.91-.89-.39-.89-.91Z"/>
    <path class="cls-1" d="M390.97,96.54h.59c2.16,0,3.98-.45,5.33-1.13-1.34-1.28-2.66-2.75-4.65-3.42l.11-.98c1.45-1.1,3.51-2.29,5.39-2.29,2.44,0,3.46,1.36,3.46,2.83,0,1.32-.8,2.79-2.32,3.94.84.63,1.75,1.06,2.88,1.06h1.1v1.13h-1.32c-1.56,0-2.71-.63-3.75-1.49-1.6.89-3.74,1.49-6.37,1.49h-.45v-1.13ZM397.99,94.73c1.17-.87,1.8-1.95,1.8-3.01s-.65-1.93-2.19-1.93c-1.38,0-3.01,1-3.9,1.64,1.75.67,2.99,2.12,4.29,3.31Z"/>
    <path class="cls-1" d="M402.58,96.54h2.77v-7.6h1.41v7.6h2.01v1.13h-6.19v-1.13ZM403.58,86.22c0-.5.39-.89.87-.89s.89.39.89.89-.39.89-.89.89-.87-.39-.87-.89ZM406.19,86.22c0-.5.41-.89.89-.89s.89.39.89.89-.41.89-.89.89-.89-.39-.89-.89Z"/>
    <path class="cls-1" d="M408.49,96.54h2.71v-11.97h1.41v13.1h-4.13v-1.13Z"/>
    <path class="cls-1" d="M424.23,97.67c-3.55,0-4.85-1.69-4.85-4.35,0-2.43,1.52-4.59,4.59-4.59,1.99,0,3.68.65,3.68.65v7.16h2.16v1.13h-5.58ZM426.26,90.33s-.99-.46-2.43-.46c-1.86,0-2.99,1.3-2.99,3.29,0,2.29,1.06,3.38,3.62,3.38h1.8v-6.21ZM421.67,86.22c0-.5.39-.89.87-.89s.89.39.89.89-.39.89-.89.89-.87-.39-.87-.89ZM424.27,86.22c0-.5.41-.89.89-.89s.89.39.89.89-.41.89-.89.89-.89-.39-.89-.89Z"/>
    <path class="cls-1" d="M429.53,96.54h6.15c-.04-3.94-1.63-5.76-5-6.78v-1.06l6.93-4.35v1.43l-5.26,3.25c3.03,1.25,4.72,3.31,4.72,7.83v.82h-7.55v-1.13Z"/>
    <path class="cls-1" d="M440.45,84.57h1.41v13.1h-1.41v-13.1Z"/>
    <path class="cls-1" d="M441.38,102.17l.21-1.19c.61.22,1.3.37,2.01.37,1.65,0,2.66-.82,2.66-3.44v-8.98h1.43v7.6h2.14v1.13h-2.14v.09c0,2.75-1.04,4.7-4.2,4.7-.74,0-1.51-.13-2.1-.3Z"/>
    <path class="cls-1" d="M449.54,96.54h.76c1.38,0,2.01-.63,2.01-2.62v-3.87h1.41v3.36c0,2.01.02,3.25,1.67,3.25,1.21,0,2.08-.63,2.08-3.23v-4.13h1.38v4.79c0,2.16.78,2.43,2.92,2.43h.65c.09-.82.17-1.99.17-2.73,0-2.08-.28-3.85-.65-5.17l1.38-.28c.37,1.36.69,3.22.69,5.32,0,.87-.07,1.91-.17,2.86h2.19v1.13h-4.07c-2.49,0-3.46-.33-3.98-1.58-.26.8-1.06,1.71-2.83,1.71-1.26,0-2.1-.69-2.34-1.65-.33.93-1.08,1.52-2.53,1.52h-.74v-1.13ZM455.9,86.22c0-.5.39-.89.89-.89s.89.39.89.89-.41.89-.89.89-.89-.39-.89-.89ZM457.23,84.2c0-.48.37-.87.85-.87s.86.39.86.87-.37.87-.86.87-.85-.37-.85-.87ZM458.52,86.22c0-.5.39-.89.87-.89s.89.39.89.89-.39.89-.89.89-.87-.39-.87-.89Z"/>
    <path class="cls-1" d="M465.74,96.54h2.71v-11.97h1.41v13.1h-4.13v-1.13Z"/>
    <path class="cls-1" d="M473.55,84.57h1.41v13.1h-1.41v-13.1Z"/>
  </g>
</svg>