<svg width="45" height="45" viewBox="0 0 45 45" fill="none" xmlns="http://www.w3.org/2000/svg">
<path d="M41.6302 2.94023e-08H2.43011C1.08779 0.000826201 -0.000206513 1.08944 2.94023e-08 2.43225V41.6324C0.000826201 42.9747 1.08944 44.0627 2.43225 44.0625H23.5373V27.0227H17.8143V20.3531H23.5373V15.4447C23.5373 9.75268 27.0122 6.65454 32.0897 6.65454C34.5217 6.65454 36.6116 6.83581 37.2207 6.91678V12.8659H33.7195C30.957 12.8659 30.422 14.1785 30.422 16.1052V20.3531H37.0271L36.1665 27.0227H30.422V44.0625H41.6302C42.9733 44.0628 44.0622 42.9743 44.0625 41.6313V2.43018C44.0619 1.08779 42.973 -0.000206513 41.6302 2.94023e-08Z" fill="#0A476D"/>
</svg>
