<svg width="48" height="47" viewBox="0 0 48 47" fill="none" xmlns="http://www.w3.org/2000/svg">
<g clip-path="url(#clip0_430_743)">
<path d="M28.2188 23.5C28.2188 25.7813 26.3299 27.6309 24 27.6309C21.6701 27.6309 19.7812 25.7813 19.7812 23.5C19.7812 21.2187 21.6701 19.3691 24 19.3691C26.3299 19.3691 28.2188 21.2187 28.2188 23.5Z" fill="#0A476D"/>
<path d="M31.125 11.0156H16.875C13.7732 11.0156 11.25 13.4862 11.25 16.5234V30.4766C11.25 33.5138 13.7732 35.9844 16.875 35.9844H31.125C34.2268 35.9844 36.75 33.5138 36.75 30.4766V16.5234C36.75 13.4862 34.2268 11.0156 31.125 11.0156ZM24 30.3848C20.123 30.3848 16.9688 27.2963 16.9688 23.5C16.9688 19.7037 20.123 16.6152 24 16.6152C27.877 16.6152 31.0312 19.7037 31.0312 23.5C31.0312 27.2963 27.877 30.3848 24 30.3848ZM32.0625 16.9824C31.2858 16.9824 30.6562 16.366 30.6562 15.6055C30.6562 14.8449 31.2858 14.2285 32.0625 14.2285C32.8392 14.2285 33.4688 14.8449 33.4688 15.6055C33.4688 16.366 32.8392 16.9824 32.0625 16.9824Z" fill="#0A476D"/>
<path d="M35.3438 0H12.6562C5.67769 0 0 5.55949 0 12.3926V34.6074C0 41.4406 5.67778 47 12.6562 47H35.3438C42.3223 47 48 41.4405 48 34.6074V12.3926C48 5.5594 42.3222 0 35.3438 0ZM39.5625 30.4766C39.5625 35.032 35.7773 38.7383 31.125 38.7383H16.875C12.2227 38.7383 8.4375 35.032 8.4375 30.4766V16.5234C8.4375 11.968 12.2227 8.26172 16.875 8.26172H31.125C35.7773 8.26172 39.5625 11.968 39.5625 16.5234V30.4766Z" fill="#0A476D"/>
</g>
<defs>
<clipPath id="clip0_430_743">
<rect width="48" height="47" fill="white"/>
</clipPath>
</defs>
</svg>
