<svg width="52" height="58" viewBox="0 0 52 58" fill="none" xmlns="http://www.w3.org/2000/svg">
<path d="M49.4963 24.0811L26.8754 1.45691C25.5413 0.126082 23.3832 0.141828 22.0665 1.45521C20.7424 2.78275 20.7424 4.93827 22.0665 6.26411L44.6907 28.8867C46.0161 30.2121 48.1708 30.2121 49.4963 28.8867C50.8253 27.5577 50.8253 25.4099 49.4963 24.0811ZM20.3883 9.39158L20.218 10.245C19.0187 16.2442 16.104 21.9435 12.1617 26.5628L24.4693 38.8704C29.088 34.9289 34.7088 31.9359 40.7082 30.7351L41.5632 30.5649L20.3883 9.39158ZM9.90521 29.112L1.49374 37.5218C-0.493777 39.5093 -0.502047 42.736 1.49374 44.7318L6.29936 49.5374C8.28688 51.525 11.5136 51.5331 13.5094 49.5374L21.92 41.1268L9.90521 29.112ZM11.1067 42.3291C10.443 42.9928 9.36758 42.9928 8.70387 42.3291C8.04015 41.6654 8.04015 40.59 8.70387 39.9263L11.1067 37.5235C11.7704 36.8598 12.8458 36.8598 13.5095 37.5235C14.1732 38.1872 14.1732 39.2626 13.5095 39.9263L11.1067 42.3291ZM29.0147 50.4417L31.3262 48.1301C33.3221 46.1346 33.3156 42.9079 31.3264 40.9219L29.6095 39.2038C28.6605 39.8412 27.7543 40.5338 26.8732 41.2729L28.9235 43.3263C29.5857 43.9851 29.5903 45.0572 28.9235 45.7275L26.5739 48.0771L23.1208 44.7316L18.315 49.5374L26.0246 57.008C27.3402 58.327 29.5004 58.3345 30.8285 57.0063C32.1543 55.6805 32.1543 53.5249 30.8285 52.199L29.0147 50.4417ZM35.8794 0C34.9401 0 34.1801 0.760004 34.1801 1.69922V5.09766C34.1801 6.03687 34.9401 6.79688 35.8794 6.79688C36.8186 6.79688 37.5786 6.03687 37.5786 5.09766V1.69922C37.5786 0.760004 36.8186 0 35.8794 0ZM49.4731 13.5938H46.0747C45.1355 13.5938 44.3755 14.3538 44.3755 15.293C44.3755 16.2322 45.1355 16.9922 46.0747 16.9922H49.4731C50.4123 16.9922 51.1723 16.2322 51.1723 15.293C51.1723 14.3538 50.4123 13.5938 49.4731 13.5938ZM47.276 3.8962C46.6123 3.23248 45.5369 3.23248 44.8732 3.8962L41.4748 7.29463C40.8111 7.95835 40.8111 9.03373 41.4748 9.69744C42.1385 10.3612 43.2139 10.3613 43.8776 9.69744L47.276 6.299C47.9397 5.63529 47.9397 4.55991 47.276 3.8962Z" fill="#78BF99"/>
</svg>
