<svg width="357" height="405" viewBox="0 0 357 405" fill="none" xmlns="http://www.w3.org/2000/svg">
<path d="M345.304 168.19L187.494 10.2053C178.169 0.949334 163.155 1.02845 153.909 10.2053C144.663 19.4614 144.663 34.4925 153.909 43.8276L311.719 201.813C320.965 211.069 335.98 211.069 345.225 201.813C354.471 192.557 354.471 177.526 345.225 168.27H345.304V168.19ZM142.213 65.5832L141.028 71.5165C132.651 113.445 112.342 153.238 84.842 185.437L170.662 271.351C202.904 243.821 242.099 222.935 283.982 214.55L289.909 213.363L142.213 65.5832ZM69.1162 203.316L10.4015 262.016C-3.42764 275.861 -3.50666 298.407 10.4015 312.331L43.9076 345.874C57.7368 359.719 80.2586 359.798 94.1668 345.874L152.802 287.174L68.9582 203.237H69.1162V203.316ZM77.4928 295.639C72.8303 300.306 65.3231 300.306 60.7397 295.639C56.1563 290.971 56.0773 283.455 60.7397 278.867L77.4928 262.095C82.1552 257.428 89.6624 257.428 94.2458 262.095C98.8292 266.763 98.9082 274.279 94.2458 278.867L77.4928 295.639ZM202.429 352.282L218.55 336.144C232.458 322.22 232.458 299.673 218.55 285.829L206.539 273.804C199.901 278.234 193.579 283.06 187.415 288.281L201.718 302.6C206.302 307.189 206.381 314.704 201.718 319.372L185.36 335.748L161.258 312.41L127.752 345.953L181.567 398.088C190.734 407.265 205.827 407.344 215.073 398.088C224.319 388.832 224.319 373.8 215.073 364.544L202.429 352.282ZM250.318 0C243.759 0 238.464 5.30045 238.464 11.8667V35.6C238.464 42.1663 243.759 47.4667 250.318 47.4667C256.877 47.4667 262.171 42.1663 262.171 35.6V11.8667C262.171 5.30045 256.877 0 250.318 0ZM345.146 94.9335H321.439C314.88 94.9335 309.586 100.234 309.586 106.8C309.586 113.366 314.88 118.667 321.439 118.667H345.146C351.705 118.667 357 113.366 357 106.8C357 100.234 351.705 94.9335 345.146 94.9335ZM329.816 27.2143C325.153 22.5467 317.646 22.5467 313.063 27.2143L289.356 50.9476C284.693 55.6152 284.693 63.1307 289.356 67.7192C294.018 72.3076 301.525 72.3868 306.109 67.7192L329.816 43.9858C334.478 39.3183 334.478 31.8027 329.816 27.2143Z" fill="#0A476D"/>
</svg>
