<svg width="11" height="11" viewBox="0 0 11 11" fill="none" xmlns="http://www.w3.org/2000/svg">
<g clip-path="url(#clip0_157_278)">
<path d="M10.0347 4.56711L5.74452 0.276311C5.4915 0.0239121 5.0822 0.0268984 4.83249 0.275988C4.58136 0.527764 4.58136 0.936568 4.83249 1.18802L9.12329 5.47852C9.37465 5.72988 9.78331 5.72988 10.0347 5.47852C10.2867 5.22646 10.2867 4.81912 10.0347 4.56711ZM4.5142 1.78116L4.48191 1.94303C4.25445 3.0808 3.70166 4.1617 2.95398 5.03776L5.2882 7.37198C6.16416 6.62445 7.23017 6.05681 8.36798 5.82908L8.53014 5.79679L4.5142 1.78116ZM2.52604 5.52125L0.930757 7.11621C0.553814 7.49315 0.552245 8.10511 0.930757 8.48362L1.84217 9.39503C2.21911 9.77198 2.83107 9.77352 3.20958 9.39503L4.80471 7.7999L2.52604 5.52125ZM2.7539 8.02794C2.62802 8.15382 2.42407 8.15382 2.29819 8.02794C2.17232 7.90206 2.17232 7.69811 2.29819 7.57223L2.7539 7.11653C2.87978 6.99065 3.08373 6.99065 3.2096 7.11653C3.33548 7.2424 3.33548 7.44636 3.2096 7.57223L2.7539 8.02794ZM6.15026 9.56652L6.58864 9.12813C6.96718 8.74966 6.96593 8.1377 6.58867 7.76106L6.26305 7.43521C6.08307 7.5561 5.9112 7.68745 5.74409 7.82762L6.13296 8.21707C6.25854 8.342 6.25942 8.54533 6.13296 8.67245L5.68733 9.11808L5.03245 8.48358L4.12099 9.39503L5.58315 10.8119C5.83267 11.062 6.24236 11.0634 6.49424 10.8115C6.7457 10.5601 6.7457 10.1513 6.49424 9.89981L6.15026 9.56652ZM7.45217 0C7.27404 0 7.1299 0.144139 7.1299 0.322266V0.966797C7.1299 1.14492 7.27404 1.28906 7.45217 1.28906C7.63029 1.28906 7.77443 1.14492 7.77443 0.966797V0.322266C7.77443 0.144139 7.63029 0 7.45217 0ZM10.0303 2.57813H9.38576C9.20763 2.57813 9.06349 2.72226 9.06349 2.90039C9.06349 3.07852 9.20763 3.22266 9.38576 3.22266H10.0303C10.2084 3.22266 10.3526 3.07852 10.3526 2.90039C10.3526 2.72226 10.2084 2.57813 10.0303 2.57813ZM9.6136 0.738934C9.48772 0.613057 9.28377 0.613057 9.1579 0.738934L8.51337 1.38346C8.38749 1.50934 8.38749 1.71329 8.51337 1.83917C8.63924 1.96505 8.84319 1.96507 8.96907 1.83917L9.6136 1.19464C9.73948 1.06876 9.73948 0.864811 9.6136 0.738934Z" fill="#78BF99"/>
</g>
<defs>
<clipPath id="clip0_157_278">
<rect width="11" height="11" fill="white"/>
</clipPath>
</defs>
</svg>
