<svg width="23" height="27" viewBox="0 0 23 27" fill="none" xmlns="http://www.w3.org/2000/svg">
<path d="M22.2465 11.2127L12.0794 0.680356C11.4787 0.063289 10.5114 0.068563 9.91569 0.680356C9.32003 1.29742 9.32003 2.2995 9.91569 2.92184L20.0828 13.4542C20.6784 14.0712 21.6458 14.0712 22.2414 13.4542C22.8371 12.8371 22.8371 11.835 22.2414 11.218H22.2465V11.2127ZM9.1622 4.37221L9.08583 4.76777C8.54617 7.56303 7.23774 10.2159 5.46601 12.3624L10.995 18.0901C13.0722 16.2547 15.5974 14.8624 18.2958 14.3033L18.6776 14.2242L9.1622 4.37221ZM4.45287 13.5544L0.670127 17.4678C-0.220828 18.3907 -0.225919 19.8938 0.670127 20.8221L2.82878 23.0583C3.71974 23.9812 5.17072 23.9865 6.06677 23.0583L9.84442 19.1449L4.44268 13.5491H4.45287V13.5544ZM4.99253 19.7092C4.69215 20.0204 4.20849 20.0204 3.9132 19.7092C3.61791 19.3981 3.61282 18.897 3.9132 18.5911L4.99253 17.473C5.29291 17.1619 5.77657 17.1619 6.07186 17.473C6.36715 17.7842 6.37224 18.2852 6.07186 18.5911L4.99253 19.7092ZM13.0417 23.4855L14.0803 22.4096C14.9763 21.4813 14.9763 19.9782 14.0803 19.0553L13.3064 18.2536C12.8788 18.5489 12.4715 18.8707 12.0743 19.2188L12.9959 20.1734C13.2911 20.4793 13.2962 20.9803 12.9959 21.2915L11.942 22.3832L10.3892 20.8273L8.23052 23.0636L11.6976 26.5392C12.2882 27.151 13.2606 27.1562 13.8563 26.5392C14.4519 25.9221 14.4519 24.92 13.8563 24.303L13.0417 23.4855ZM16.1269 0C15.7044 0 15.3632 0.353363 15.3632 0.791112V2.37334C15.3632 2.81109 15.7044 3.16445 16.1269 3.16445C16.5495 3.16445 16.8906 2.81109 16.8906 2.37334V0.791112C16.8906 0.353363 16.5495 0 16.1269 0ZM22.2363 6.3289H20.709C20.2864 6.3289 19.9453 6.68226 19.9453 7.12001C19.9453 7.55776 20.2864 7.91112 20.709 7.91112H22.2363C22.6589 7.91112 23 7.55776 23 7.12001C23 6.68226 22.6589 6.3289 22.2363 6.3289ZM21.2486 1.81428C20.9483 1.50311 20.4646 1.50311 20.1693 1.81428L18.642 3.39651C18.3416 3.70768 18.3416 4.20872 18.642 4.51461C18.9423 4.82051 19.426 4.82578 19.7213 4.51461L21.2486 2.93239C21.549 2.62122 21.549 2.12018 21.2486 1.81428Z" fill="#79BF98"/>
</svg>
