<svg width="125" height="90" viewBox="0 0 125 90" fill="none" xmlns="http://www.w3.org/2000/svg">
<path d="M68.3838 72.1623H56.6162C56.3721 72.5773 55.8106 73.5539 55.249 74.5548C46.5332 89.5451 26.8066 94.0128 12.6465 84.1984C-1.58691 74.3107 -4.10155 54.5597 6.59181 40.8634C10.8887 35.3459 14.0625 28.9494 17.5537 22.8459C20.1904 18.2316 23.7061 14.7404 28.4424 12.3234C29.4678 11.713 30.249 10.7853 30.6397 9.66226C32.9834 2.4357 39.3555 -1.37289 46.2891 0.458164C53.0029 2.24039 56.4453 8.63687 55.2246 15.9855C54.9316 17.6945 56.5674 19.6964 57.2754 21.5763C58.0811 23.7492 59.5459 24.0177 61.7676 24.2619C67.3828 24.8478 68.0176 20.4045 69.5801 17.5236C70.1172 16.547 69.6777 15.9367 69.5557 15.1798C67.9688 5.92691 71.2402 2.55777 77.8809 0.555819C84.7168 -1.49496 91.4551 2.28922 93.8477 9.27164C94.2383 10.4435 95.3613 11.6886 96.4844 12.2746C100.855 14.5939 104.297 17.7189 106.86 21.9669C111.255 29.2668 115.747 36.5177 120.313 43.7199C129.15 57.6115 125.146 76.0929 111.255 84.8087C97.3877 93.549 79.0527 89.3742 70.3125 75.4826C70.2881 75.4337 70.2637 75.4093 70.2393 75.3605C69.5069 74.213 68.8477 72.9923 68.3838 72.1623ZM48.6084 59.9796C48.7305 49.4084 40.2588 40.7169 29.6875 40.5705C19.2871 40.424 10.3516 49.091 10.1807 59.5402C10.0098 70.1359 18.75 78.9982 29.3945 79.0226C40.0391 79.0714 48.5352 70.673 48.6084 59.9796ZM114.624 59.8087C114.624 49.2863 105.981 40.6193 95.5078 40.5705C85.0586 40.5216 76.3184 49.1642 76.1475 59.6867C76.001 70.258 84.8145 79.047 95.5322 79.0226C106.104 78.9982 114.648 70.4044 114.624 59.8087ZM61.9629 55.7072C59.8145 55.8781 58.4961 57.3429 58.3496 59.7599C58.2275 61.9084 59.8633 63.7638 62.0361 63.9103H62.5733C65.0391 63.7638 66.4551 62.3966 66.5283 59.8576C66.5772 57.3673 64.7949 55.6584 61.9629 55.7072Z" fill="#79BF98"/>
</svg>
