<svg width="14" height="14" viewBox="0 0 14 14" fill="none" xmlns="http://www.w3.org/2000/svg">
<path d="M8.36749 8.8224C8.54076 8.8224 8.70283 8.75409 8.82383 8.63006L9.89873 7.528C10.1441 7.27644 10.139 6.87219 9.88738 6.62684C9.6358 6.38154 9.23147 6.38663 8.98614 6.63816L8.35557 7.28462L8.2451 7.17721C7.99315 6.93232 7.58885 6.93793 7.34382 7.18985C7.09888 7.44176 7.10454 7.84601 7.35648 8.09098L7.92321 8.64201C8.04198 8.75798 8.20149 8.82275 8.36749 8.8224ZM7.63853 7.47635C7.7256 7.38683 7.86923 7.38497 7.95862 7.4719L8.21617 7.72234C8.25521 7.76029 8.30772 7.78119 8.36216 7.78047C8.4166 7.77975 8.46854 7.75745 8.50656 7.71848L9.28038 6.92513C9.36755 6.83575 9.51114 6.83402 9.60044 6.92108C9.6898 7.00823 9.69158 7.15178 9.60449 7.24111L8.52958 8.34315C8.44651 8.43199 8.29519 8.43387 8.20974 8.34741L7.64302 7.79638C7.55358 7.70937 7.55153 7.56579 7.63853 7.47635Z" fill="#09486E"/>
<path d="M6.77895 8.96221C6.74572 8.91986 6.69719 8.89224 6.64381 8.88529C6.59043 8.87833 6.53645 8.89259 6.49347 8.92501C6.45049 8.95743 6.42195 9.00542 6.41398 9.05866C6.406 9.1119 6.41923 9.16614 6.45083 9.20973C6.52621 9.30951 6.60841 9.40395 6.69684 9.49238C7.20212 9.99761 7.87393 10.2758 8.5885 10.2758C9.30307 10.2758 9.97485 9.99761 10.4801 9.49238C10.9854 8.98718 11.2637 8.31545 11.2637 7.60099C11.2637 6.8865 10.9854 6.21481 10.4801 5.7096C9.43705 4.66669 7.73991 4.66672 6.69684 5.7096C5.98571 6.42062 5.73407 7.45785 6.04012 8.41652C6.05672 8.46842 6.09324 8.51161 6.14167 8.5366C6.1901 8.56159 6.24646 8.56634 6.29838 8.54979C6.32409 8.54159 6.34793 8.5284 6.36855 8.51098C6.38916 8.49357 6.40614 8.47226 6.41851 8.44828C6.43089 8.4243 6.43842 8.39812 6.44067 8.37122C6.44293 8.34433 6.43987 8.31726 6.43166 8.29155C6.17258 7.48005 6.38556 6.60205 6.9875 6.00021C7.87026 5.11753 9.30673 5.11753 10.1895 6.00021C10.6171 6.42781 10.8527 6.99631 10.8527 7.60102C10.8527 8.20572 10.6171 8.77423 10.1895 9.20183C9.76187 9.6294 9.19328 9.86491 8.5885 9.86491C7.98374 9.86491 7.41513 9.62943 6.98747 9.20183C6.91253 9.12685 6.84285 9.04679 6.77895 8.96221Z" fill="#09486E"/>
<mask id="path-3-inside-1_606_792" fill="white">
<path d="M13.7172 11.355L12.4207 10.0587C12.3822 10.0202 12.3299 9.99851 12.2754 9.99851C12.2209 9.99851 12.1686 10.0202 12.1301 10.0587L12.1221 10.0666L11.6232 9.56776C11.9609 9.0474 12.1587 8.44882 12.1978 7.82974C12.2012 7.77535 12.1829 7.72183 12.1468 7.68094C12.1108 7.64006 12.06 7.61516 12.0056 7.61173C11.8924 7.60484 11.7947 7.69065 11.7875 7.80388C11.7385 8.58231 11.4069 9.31604 10.8551 9.86728C10.231 10.4913 9.41141 10.8037 8.59159 10.8045C8.59055 10.8045 8.58954 10.8043 8.58847 10.8043H8.57215C7.75676 10.8002 6.94263 10.488 6.32188 9.86728C5.71643 9.26195 5.38301 8.45709 5.38301 7.60099C5.38301 6.74488 5.71643 5.94002 6.32188 5.33469C7.57167 4.08503 9.60528 4.08503 10.8551 5.33469C11.3206 5.80013 11.6277 6.38723 11.7434 7.03257C11.7635 7.14426 11.8703 7.21848 11.982 7.19857C12.0085 7.19381 12.0339 7.18387 12.0566 7.1693C12.0794 7.15474 12.099 7.13585 12.1144 7.1137C12.1298 7.09155 12.1407 7.06658 12.1465 7.04022C12.1523 7.01385 12.1528 6.98661 12.148 6.96005C12.0174 6.2317 11.6708 5.56916 11.1457 5.04408C10.8923 4.79038 10.6025 4.57591 10.2858 4.40777V2.75167C10.2855 2.69723 10.2639 2.64506 10.2256 2.60637L7.67908 0.0601834C7.64036 0.0218851 7.58818 0.000280179 7.53372 0L0.616544 0C0.276608 0 2.73436e-05 0.276526 2.73436e-05 0.616435V2.34354C2.73434e-05 2.37053 0.00534334 2.39725 0.0156718 2.42218C0.0260002 2.44712 0.0411387 2.46977 0.0602229 2.48885C0.0793071 2.50793 0.101963 2.52307 0.126897 2.5334C0.151831 2.54372 0.178555 2.54903 0.205542 2.54903C0.232529 2.54903 0.259253 2.54372 0.284187 2.5334C0.309121 2.52307 0.331777 2.50793 0.350861 2.48885C0.369946 2.46977 0.385084 2.44712 0.395413 2.42218C0.405741 2.39725 0.411057 2.37053 0.411057 2.34354V0.616435C0.411057 0.503123 0.503232 0.410948 0.616572 0.410948H7.32829V2.34073C7.32829 2.68063 7.60487 2.95716 7.94481 2.95716H9.87483V4.22167C9.47386 4.06975 9.05113 3.99171 8.62771 3.98714C8.62569 3.98687 8.62372 3.98646 8.62162 3.98646H4.03335C4.00608 3.98601 3.979 3.991 3.95368 4.00113C3.92836 4.01125 3.90531 4.02632 3.88587 4.04544C3.86643 4.06457 3.85099 4.08737 3.84045 4.11252C3.82991 4.13768 3.82448 4.16467 3.82448 4.19194C3.82448 4.21922 3.82991 4.24621 3.84045 4.27137C3.85099 4.29652 3.86643 4.31932 3.88587 4.33845C3.90531 4.35757 3.92836 4.37264 3.95368 4.38276C3.979 4.39289 4.00608 4.39788 4.03335 4.39743H6.91061C6.6111 4.55418 6.33515 4.75232 6.09088 4.986H4.03335C4.00608 4.98556 3.979 4.99055 3.95368 5.00067C3.92836 5.0108 3.90531 5.02587 3.88587 5.04499C3.86643 5.06412 3.85099 5.08692 3.84045 5.11207C3.82991 5.13722 3.82448 5.16422 3.82448 5.19149C3.82448 5.21876 3.82991 5.24576 3.84045 5.27091C3.85099 5.29606 3.86643 5.31887 3.88587 5.33799C3.90531 5.35712 3.92836 5.37218 3.95368 5.38231C3.979 5.39244 4.00608 5.39742 4.03335 5.39698H5.721C5.38555 5.8315 5.1563 6.33194 5.04657 6.86615H4.03338C4.00611 6.86571 3.97903 6.87069 3.95371 6.88082C3.92839 6.89095 3.90534 6.90601 3.8859 6.92514C3.86646 6.94426 3.85102 6.96707 3.84048 6.99222C3.82994 7.01737 3.82451 7.04437 3.82451 7.07164C3.82451 7.09891 3.82994 7.12591 3.84048 7.15106C3.85102 7.17621 3.86646 7.19902 3.8859 7.21814C3.90534 7.23727 3.92839 7.25233 3.95371 7.26246C3.97903 7.27259 4.00611 7.27757 4.03338 7.27713H4.98655C4.97697 7.38483 4.97215 7.49291 4.97209 7.60104C4.97209 7.69029 4.97534 7.77905 4.98171 7.86718H4.03341C4.00614 7.86673 3.97906 7.87172 3.95374 7.88185C3.92842 7.89197 3.90536 7.90704 3.88592 7.92616C3.86648 7.94529 3.85104 7.96809 3.84051 7.99324C3.82997 8.0184 3.82454 8.04539 3.82454 8.07266C3.82454 8.09993 3.82997 8.12693 3.84051 8.15209C3.85104 8.17724 3.86648 8.20004 3.88592 8.21917C3.90536 8.23829 3.92842 8.25336 3.95374 8.26348C3.97906 8.27361 4.00614 8.2786 4.03341 8.27815H5.03528C5.14009 8.83435 5.37376 9.35552 5.72163 9.80584H4.03341C4.00642 9.80584 3.9797 9.81116 3.95477 9.82148C3.92984 9.83181 3.90719 9.84695 3.8881 9.86603C3.86902 9.88511 3.85389 9.90776 3.84356 9.93269C3.83323 9.95762 3.82792 9.98434 3.82792 10.0113C3.82792 10.0383 3.83323 10.065 3.84356 10.09C3.85389 10.1149 3.86902 10.1375 3.8881 10.1566C3.90719 10.1757 3.92984 10.1908 3.95477 10.2012C3.9797 10.2115 4.00642 10.2168 4.03341 10.2168H6.0917C6.33563 10.4501 6.61113 10.6479 6.91012 10.8044H4.0333C4.00603 10.804 3.97895 10.809 3.95363 10.8191C3.92831 10.8292 3.90525 10.8443 3.88581 10.8634C3.86637 10.8825 3.85093 10.9053 3.8404 10.9305C3.82986 10.9556 3.82443 10.9826 3.82443 11.0099C3.82443 11.0372 3.82986 11.0642 3.8404 11.0893C3.85093 11.1145 3.86637 11.1373 3.88581 11.1564C3.90525 11.1755 3.92831 11.1906 3.95363 11.2007C3.97895 11.2109 4.00603 11.2159 4.0333 11.2154H8.58847C9.02793 11.2155 9.46375 11.1358 9.87477 10.9804V13.3836C9.87477 13.4969 9.7826 13.5891 9.66926 13.5891H0.616544C0.503232 13.5891 0.41103 13.4969 0.41103 13.3836V3.16557C0.41103 3.0521 0.319018 2.96009 0.205515 2.96009C0.0920114 2.96009 0 3.05207 0 3.16557V13.3836C2.73436e-05 13.7234 0.276608 13.9999 0.616544 13.9999H9.66929C10.0092 13.9999 10.2858 13.7234 10.2858 13.3835V10.7941C10.378 10.7452 10.468 10.6922 10.5556 10.6354L11.0544 11.1342C10.9681 11.2096 10.9635 11.3532 11.0465 11.4327L12.343 12.7291C12.7047 13.106 13.3556 13.106 13.7172 12.7291C14.0942 12.3674 14.0942 11.7166 13.7172 11.355ZM7.94478 2.54621C7.83147 2.54621 7.73926 2.45404 7.73926 2.34073V0.701556L9.58417 2.54621H7.94478ZM10.8908 10.3894C10.9794 10.3163 11.0644 10.239 11.1457 10.1579C11.2269 10.0767 11.3041 9.99161 11.3773 9.90305L11.8315 10.3572L11.345 10.8436L10.8908 10.3894ZM13.4266 12.4385C13.2179 12.656 12.8424 12.656 12.6336 12.4385L11.4824 11.2874L12.2754 10.4945L13.4266 11.6456C13.6441 11.8543 13.6442 12.2298 13.4266 12.4385Z"/>
</mask>
<path d="M13.7172 11.355L12.4207 10.0587C12.3822 10.0202 12.3299 9.99851 12.2754 9.99851C12.2209 9.99851 12.1686 10.0202 12.1301 10.0587L12.1221 10.0666L11.6232 9.56776C11.9609 9.0474 12.1587 8.44882 12.1978 7.82974C12.2012 7.77535 12.1829 7.72183 12.1468 7.68094C12.1108 7.64006 12.06 7.61516 12.0056 7.61173C11.8924 7.60484 11.7947 7.69065 11.7875 7.80388C11.7385 8.58231 11.4069 9.31604 10.8551 9.86728C10.231 10.4913 9.41141 10.8037 8.59159 10.8045C8.59055 10.8045 8.58954 10.8043 8.58847 10.8043H8.57215C7.75676 10.8002 6.94263 10.488 6.32188 9.86728C5.71643 9.26195 5.38301 8.45709 5.38301 7.60099C5.38301 6.74488 5.71643 5.94002 6.32188 5.33469C7.57167 4.08503 9.60528 4.08503 10.8551 5.33469C11.3206 5.80013 11.6277 6.38723 11.7434 7.03257C11.7635 7.14426 11.8703 7.21848 11.982 7.19857C12.0085 7.19381 12.0339 7.18387 12.0566 7.1693C12.0794 7.15474 12.099 7.13585 12.1144 7.1137C12.1298 7.09155 12.1407 7.06658 12.1465 7.04022C12.1523 7.01385 12.1528 6.98661 12.148 6.96005C12.0174 6.2317 11.6708 5.56916 11.1457 5.04408C10.8923 4.79038 10.6025 4.57591 10.2858 4.40777V2.75167C10.2855 2.69723 10.2639 2.64506 10.2256 2.60637L7.67908 0.0601834C7.64036 0.0218851 7.58818 0.000280179 7.53372 0L0.616544 0C0.276608 0 2.73436e-05 0.276526 2.73436e-05 0.616435V2.34354C2.73434e-05 2.37053 0.00534334 2.39725 0.0156718 2.42218C0.0260002 2.44712 0.0411387 2.46977 0.0602229 2.48885C0.0793071 2.50793 0.101963 2.52307 0.126897 2.5334C0.151831 2.54372 0.178555 2.54903 0.205542 2.54903C0.232529 2.54903 0.259253 2.54372 0.284187 2.5334C0.309121 2.52307 0.331777 2.50793 0.350861 2.48885C0.369946 2.46977 0.385084 2.44712 0.395413 2.42218C0.405741 2.39725 0.411057 2.37053 0.411057 2.34354V0.616435C0.411057 0.503123 0.503232 0.410948 0.616572 0.410948H7.32829V2.34073C7.32829 2.68063 7.60487 2.95716 7.94481 2.95716H9.87483V4.22167C9.47386 4.06975 9.05113 3.99171 8.62771 3.98714C8.62569 3.98687 8.62372 3.98646 8.62162 3.98646H4.03335C4.00608 3.98601 3.979 3.991 3.95368 4.00113C3.92836 4.01125 3.90531 4.02632 3.88587 4.04544C3.86643 4.06457 3.85099 4.08737 3.84045 4.11252C3.82991 4.13768 3.82448 4.16467 3.82448 4.19194C3.82448 4.21922 3.82991 4.24621 3.84045 4.27137C3.85099 4.29652 3.86643 4.31932 3.88587 4.33845C3.90531 4.35757 3.92836 4.37264 3.95368 4.38276C3.979 4.39289 4.00608 4.39788 4.03335 4.39743H6.91061C6.6111 4.55418 6.33515 4.75232 6.09088 4.986H4.03335C4.00608 4.98556 3.979 4.99055 3.95368 5.00067C3.92836 5.0108 3.90531 5.02587 3.88587 5.04499C3.86643 5.06412 3.85099 5.08692 3.84045 5.11207C3.82991 5.13722 3.82448 5.16422 3.82448 5.19149C3.82448 5.21876 3.82991 5.24576 3.84045 5.27091C3.85099 5.29606 3.86643 5.31887 3.88587 5.33799C3.90531 5.35712 3.92836 5.37218 3.95368 5.38231C3.979 5.39244 4.00608 5.39742 4.03335 5.39698H5.721C5.38555 5.8315 5.1563 6.33194 5.04657 6.86615H4.03338C4.00611 6.86571 3.97903 6.87069 3.95371 6.88082C3.92839 6.89095 3.90534 6.90601 3.8859 6.92514C3.86646 6.94426 3.85102 6.96707 3.84048 6.99222C3.82994 7.01737 3.82451 7.04437 3.82451 7.07164C3.82451 7.09891 3.82994 7.12591 3.84048 7.15106C3.85102 7.17621 3.86646 7.19902 3.8859 7.21814C3.90534 7.23727 3.92839 7.25233 3.95371 7.26246C3.97903 7.27259 4.00611 7.27757 4.03338 7.27713H4.98655C4.97697 7.38483 4.97215 7.49291 4.97209 7.60104C4.97209 7.69029 4.97534 7.77905 4.98171 7.86718H4.03341C4.00614 7.86673 3.97906 7.87172 3.95374 7.88185C3.92842 7.89197 3.90536 7.90704 3.88592 7.92616C3.86648 7.94529 3.85104 7.96809 3.84051 7.99324C3.82997 8.0184 3.82454 8.04539 3.82454 8.07266C3.82454 8.09993 3.82997 8.12693 3.84051 8.15209C3.85104 8.17724 3.86648 8.20004 3.88592 8.21917C3.90536 8.23829 3.92842 8.25336 3.95374 8.26348C3.97906 8.27361 4.00614 8.2786 4.03341 8.27815H5.03528C5.14009 8.83435 5.37376 9.35552 5.72163 9.80584H4.03341C4.00642 9.80584 3.9797 9.81116 3.95477 9.82148C3.92984 9.83181 3.90719 9.84695 3.8881 9.86603C3.86902 9.88511 3.85389 9.90776 3.84356 9.93269C3.83323 9.95762 3.82792 9.98434 3.82792 10.0113C3.82792 10.0383 3.83323 10.065 3.84356 10.09C3.85389 10.1149 3.86902 10.1375 3.8881 10.1566C3.90719 10.1757 3.92984 10.1908 3.95477 10.2012C3.9797 10.2115 4.00642 10.2168 4.03341 10.2168H6.0917C6.33563 10.4501 6.61113 10.6479 6.91012 10.8044H4.0333C4.00603 10.804 3.97895 10.809 3.95363 10.8191C3.92831 10.8292 3.90525 10.8443 3.88581 10.8634C3.86637 10.8825 3.85093 10.9053 3.8404 10.9305C3.82986 10.9556 3.82443 10.9826 3.82443 11.0099C3.82443 11.0372 3.82986 11.0642 3.8404 11.0893C3.85093 11.1145 3.86637 11.1373 3.88581 11.1564C3.90525 11.1755 3.92831 11.1906 3.95363 11.2007C3.97895 11.2109 4.00603 11.2159 4.0333 11.2154H8.58847C9.02793 11.2155 9.46375 11.1358 9.87477 10.9804V13.3836C9.87477 13.4969 9.7826 13.5891 9.66926 13.5891H0.616544C0.503232 13.5891 0.41103 13.4969 0.41103 13.3836V3.16557C0.41103 3.0521 0.319018 2.96009 0.205515 2.96009C0.0920114 2.96009 0 3.05207 0 3.16557V13.3836C2.73436e-05 13.7234 0.276608 13.9999 0.616544 13.9999H9.66929C10.0092 13.9999 10.2858 13.7234 10.2858 13.3835V10.7941C10.378 10.7452 10.468 10.6922 10.5556 10.6354L11.0544 11.1342C10.9681 11.2096 10.9635 11.3532 11.0465 11.4327L12.343 12.7291C12.7047 13.106 13.3556 13.106 13.7172 12.7291C14.0942 12.3674 14.0942 11.7166 13.7172 11.355ZM7.94478 2.54621C7.83147 2.54621 7.73926 2.45404 7.73926 2.34073V0.701556L9.58417 2.54621H7.94478ZM10.8908 10.3894C10.9794 10.3163 11.0644 10.239 11.1457 10.1579C11.2269 10.0767 11.3041 9.99161 11.3773 9.90305L11.8315 10.3572L11.345 10.8436L10.8908 10.3894ZM13.4266 12.4385C13.2179 12.656 12.8424 12.656 12.6336 12.4385L11.4824 11.2874L12.2754 10.4945L13.4266 11.6456C13.6441 11.8543 13.6442 12.2298 13.4266 12.4385Z" fill="#09486E" stroke="#09486E" stroke-width="4" mask="url(#path-3-inside-1_606_792)"/>
<path d="M1.86498 5.60008H2.76404C3.01751 5.60008 3.22374 5.39391 3.22374 5.14049V4.24154C3.22374 3.98809 3.01754 3.78192 2.76404 3.78192H1.86498C1.61153 3.78192 1.4053 3.98809 1.4053 4.24154V5.14049C1.4053 5.39391 1.61153 5.60008 1.86498 5.60008ZM1.81633 4.24154C1.81633 4.21472 1.83818 4.1929 1.86498 4.1929H2.76404C2.79089 4.1929 2.81271 4.21472 2.81271 4.24154V5.14049C2.81271 5.16731 2.79086 5.18913 2.76404 5.18913H1.86498C1.85208 5.18913 1.83971 5.184 1.83059 5.17488C1.82147 5.16576 1.81634 5.15339 1.81633 5.14049V4.24154ZM1.4053 8.02161C1.4053 8.27503 1.6115 8.4812 1.86498 8.4812H2.76404C3.01751 8.4812 3.22374 8.27503 3.22374 8.02161V7.12266C3.22374 6.86924 3.01754 6.66307 2.76404 6.66307H1.86498C1.61153 6.66307 1.4053 6.86924 1.4053 7.12266V8.02161ZM1.81633 7.12266C1.81633 7.09583 1.83818 7.07401 1.86498 7.07401H2.76404C2.79089 7.07401 2.81271 7.09583 2.81271 7.12266V8.02161C2.81271 8.04843 2.79086 8.07025 2.76404 8.07025H1.86498C1.85208 8.07024 1.83971 8.06512 1.83059 8.056C1.82147 8.04688 1.81634 8.03451 1.81633 8.02161V7.12266ZM1.4053 10.9613C1.4053 11.2147 1.6115 11.4209 1.86498 11.4209H2.76404C3.01751 11.4209 3.22374 11.2147 3.22374 10.9613V10.0623C3.22374 9.80887 3.01754 9.6027 2.76404 9.6027H1.86498C1.61153 9.6027 1.4053 9.80887 1.4053 10.0623V10.9613ZM1.81633 10.0623C1.81633 10.0355 1.83818 10.0137 1.86498 10.0137H2.76404C2.79089 10.0137 2.81271 10.0355 2.81271 10.0623V10.9613C2.81271 10.9881 2.79086 11.0099 2.76404 11.0099H1.86498C1.85208 11.0099 1.83971 11.0048 1.83059 10.9957C1.82147 10.9865 1.81634 10.9742 1.81633 10.9613V10.0623Z" fill="#09486E"/>
</svg>
