<svg width="200" height="37" viewBox="0 0 200 37" fill="none" xmlns="http://www.w3.org/2000/svg">
<path d="M10.6025 14.5708H6.65479V7.85449C6.65479 7.15039 6.39844 6.6958 5.88574 6.49072C5.46191 6.31982 4.61426 6.23438 3.34277 6.23438C2.12598 6.23438 1.01172 6.30957 0 6.45996V3.79395C1.10742 3.64355 2.71045 3.56836 4.80908 3.56836C6.8667 3.56836 8.30908 3.81445 9.13623 4.30664C10.1138 4.86035 10.6025 5.896 10.6025 7.41357V14.5708ZM3.98877 14.5708H0.0410156V8.50049H3.98877V14.5708ZM23.7275 14.5708H19.7798V7.4751C19.7798 6.88721 19.5815 6.50781 19.1851 6.33691C18.9663 6.24121 18.5254 6.19336 17.8623 6.19336C17.2471 6.19336 16.8267 6.2207 16.6011 6.27539V14.5708H12.6533V3.81445C14.1094 3.65039 15.8389 3.56836 17.8418 3.56836C19.9404 3.56836 21.3896 3.76318 22.1895 4.15283C23.2148 4.65869 23.7275 5.67383 23.7275 7.19824V14.5708ZM29.7056 14.5708H25.7783V3.65039H29.7056V14.5708ZM35.7349 14.5708H31.8076V3.65039H35.7349V14.5708ZM46.604 14.5708H42.6562V7.85449C42.6562 7.2666 42.4819 6.85303 42.1333 6.61377C41.7437 6.36084 41.0088 6.23438 39.9287 6.23438C39.2178 6.23438 38.4009 6.2959 37.478 6.41895V3.79395C38.606 3.65723 39.8159 3.58887 41.1079 3.58887C43.0425 3.58887 44.4131 3.81787 45.2197 4.27588C46.1426 4.79541 46.604 5.73535 46.604 7.0957V14.5708ZM63.2871 3.65039L62.4258 10.5C62.2412 11.9697 61.8174 13.0156 61.1543 13.6377C60.4912 14.2598 59.4658 14.5708 58.0781 14.5708H54.6328V11.9663H56.8989C57.4731 11.9663 57.873 11.8774 58.0986 11.6997C58.3242 11.5151 58.4644 11.1562 58.519 10.623L59.0625 6.31641H53.146V0H57.0732V3.65039H63.2871ZM77.0273 7.03418C77.0273 7.74512 76.9521 8.56201 76.8018 9.48486C76.6172 10.6196 76.3711 11.5015 76.0635 12.1304C75.2227 13.853 73.4863 14.7144 70.8545 14.7144C69.0908 14.7144 67.7886 14.3726 66.9478 13.689C66.0522 12.9438 65.5361 11.6826 65.3994 9.90527L64.897 3.65039H73.459C74.6348 3.65039 75.5029 3.87598 76.0635 4.32715C76.7061 4.85352 77.0273 5.75586 77.0273 7.03418ZM73.0796 7.68018C73.0796 7.14697 72.9873 6.78809 72.8027 6.60352C72.625 6.41211 72.3208 6.31641 71.8901 6.31641H69.0703L69.2856 10.0796C69.3267 10.9204 69.4873 11.5015 69.7676 11.8228C70.0068 12.0894 70.4067 12.2227 70.9673 12.2227C71.5688 12.2227 72.0234 12.0381 72.3311 11.6689C72.5977 11.3477 72.7856 10.8247 72.895 10.1001C73.0181 9.25928 73.0796 8.45264 73.0796 7.68018ZM95.5049 14.5708H91.5776V7.28027C91.5776 6.84961 91.458 6.56934 91.2188 6.43945C91.082 6.35742 90.8325 6.31641 90.4702 6.31641H88.7681V11.4434C88.7681 12.5371 88.5151 13.3335 88.0093 13.8325C87.4487 14.3931 86.5122 14.6733 85.1997 14.6733C84.3589 14.6733 83.6855 14.605 83.1797 14.4683V12.0278C83.5557 12.0688 83.7573 12.0894 83.7847 12.0894C84.4751 12.0894 84.8203 11.8159 84.8203 11.269V6.31641H83.5386V3.65039H91.1982C92.5859 3.65039 93.5669 3.8042 94.1411 4.11182C95.0503 4.604 95.5049 5.59863 95.5049 7.0957V14.5708ZM106.343 14.5708H102.396V7.85449C102.396 7.2666 102.221 6.85303 101.873 6.61377C101.483 6.36084 100.748 6.23438 99.668 6.23438C98.957 6.23438 98.1401 6.2959 97.2173 6.41895V3.79395C98.3452 3.65723 99.5552 3.58887 100.847 3.58887C102.782 3.58887 104.152 3.81787 104.959 4.27588C105.882 4.79541 106.343 5.73535 106.343 7.0957V14.5708ZM112.229 9.74121H108.302V3.65039H112.229V9.74121ZM125.057 3.65039L124.359 7.4751C124.052 9.13623 123.17 9.9668 121.714 9.9668L124.431 14.1504V14.5708H113.993V11.9868H118.72L113.593 3.90674V3.65039H117.981L120.688 8.31592C120.729 8.32959 120.764 8.31592 120.791 8.2749C120.723 7.99463 120.729 7.62891 120.812 7.17773L121.386 3.65039H125.057ZM130.604 9.74121H126.677V3.65039H130.604V9.74121ZM142.427 3.65039L141.565 10.5C141.381 11.9697 140.957 13.0156 140.294 13.6377C139.631 14.2598 138.605 14.5708 137.218 14.5708H133.772V11.9663H136.039C136.613 11.9663 137.013 11.8774 137.238 11.6997C137.464 11.5151 137.604 11.1562 137.659 10.623L138.202 6.31641H132.286V0H136.213V3.65039H142.427ZM157.961 18.2827H154.014V7.85449C154.014 7.2666 153.839 6.85303 153.491 6.61377C153.101 6.36084 152.366 6.23438 151.286 6.23438C150.254 6.23438 149.437 6.2959 148.835 6.41895V3.79395C149.519 3.65723 150.729 3.58887 152.465 3.58887C154.4 3.58887 155.771 3.81787 156.577 4.27588C157.5 4.79541 157.961 5.73535 157.961 7.0957V18.2827ZM163.847 9.74121H159.92V3.65039H163.847V9.74121ZM174.655 14.5708H170.707V7.85449C170.707 7.2666 170.533 6.85303 170.184 6.61377C169.794 6.36084 169.06 6.23438 167.979 6.23438C167.269 6.23438 166.452 6.2959 165.529 6.41895V3.79395C166.657 3.65723 167.867 3.58887 169.159 3.58887C171.093 3.58887 172.464 3.81787 173.271 4.27588C174.193 4.79541 174.655 5.73535 174.655 7.0957V14.5708ZM186.426 6.31641H185.011V14.5708H181.063V6.31641H176.254V3.65039H186.426V6.31641ZM199.777 14.5708H193.686V11.9663H195.829V7.61865C195.829 6.65479 195.337 6.17285 194.353 6.17285C193.614 6.17285 193.125 6.60693 192.886 7.4751C192.791 7.89209 192.65 8.78076 192.466 10.1411L191.902 14.5708H188.077L188.713 10.459C188.85 9.54297 188.897 8.89697 188.856 8.521C188.774 7.70752 188.368 6.1626 187.636 3.88623V3.6709H191.461C191.755 4.42969 191.97 5.16455 192.107 5.87549C192.121 5.9165 192.151 5.93701 192.199 5.93701C192.227 5.93701 192.247 5.92334 192.261 5.896C192.568 4.9458 193.03 4.30322 193.645 3.96826C194.103 3.70166 194.773 3.56836 195.655 3.56836C197.056 3.56836 198.071 3.83496 198.7 4.36816C199.418 4.95605 199.777 5.94043 199.777 7.32129V14.5708ZM42.7793 36.5708H38.8521V29.2803C38.8521 28.8496 38.7324 28.5693 38.4932 28.4395C38.3564 28.3574 38.1069 28.3164 37.7446 28.3164H36.0425V33.4434C36.0425 34.5371 35.7896 35.3335 35.2837 35.8325C34.7231 36.3931 33.7866 36.6733 32.4741 36.6733C31.6333 36.6733 30.96 36.605 30.4541 36.4683V34.0278C30.8301 34.0688 31.0317 34.0894 31.0591 34.0894C31.7495 34.0894 32.0947 33.8159 32.0947 33.269V28.3164H30.813V25.6504H38.4727C39.8604 25.6504 40.8413 25.8042 41.4155 26.1118C42.3247 26.604 42.7793 27.5986 42.7793 29.0957V36.5708ZM48.6753 31.7412H44.748V25.6504H48.6753V31.7412ZM62.4053 36.5708H58.478V29.2803C58.478 28.8496 58.3584 28.5693 58.1191 28.4395C57.9824 28.3574 57.7329 28.3164 57.3706 28.3164H55.6685V33.4434C55.6685 34.5371 55.4155 35.3335 54.9097 35.8325C54.3491 36.3931 53.4126 36.6733 52.1001 36.6733C51.2593 36.6733 50.5859 36.605 50.0801 36.4683V34.0278C50.4561 34.0688 50.6577 34.0894 50.6851 34.0894C51.3755 34.0894 51.7207 33.8159 51.7207 33.269V28.3164H50.439V25.6504H58.0986C59.4863 25.6504 60.4673 25.8042 61.0415 26.1118C61.9507 26.604 62.4053 27.5986 62.4053 29.0957V36.5708ZM68.4038 36.5708H64.4766V25.6504H68.4038V36.5708ZM80.0112 36.5708H69.8701V33.9868H75.1406V29.7622C75.1406 29.1333 74.9629 28.73 74.6074 28.5522C74.252 28.3677 73.5137 28.2754 72.3926 28.2754C71.5654 28.2754 70.7998 28.3232 70.0957 28.4189V25.8145C70.9229 25.6777 72.1499 25.6094 73.7769 25.6094C75.6362 25.6094 76.9521 25.8179 77.7246 26.2349C78.6338 26.7407 79.0884 27.667 79.0884 29.0137V33.9868H80.0112V36.5708ZM90.2651 36.5708H86.3174V29.8545C86.3174 29.2666 86.1431 28.853 85.7944 28.6138C85.4048 28.3608 84.6699 28.2344 83.5898 28.2344C82.8789 28.2344 82.062 28.2959 81.1392 28.4189V25.7939C82.2671 25.6572 83.4771 25.5889 84.769 25.5889C86.7036 25.5889 88.0742 25.8179 88.8809 26.2759C89.8037 26.7954 90.2651 27.7354 90.2651 29.0957V36.5708ZM104.016 36.5708H100.088V29.2803C100.088 28.8496 99.9688 28.5693 99.7295 28.4395C99.5928 28.3574 99.3433 28.3164 98.981 28.3164H97.2788V33.4434C97.2788 34.5371 97.0259 35.3335 96.52 35.8325C95.9595 36.3931 95.0229 36.6733 93.7104 36.6733C92.8696 36.6733 92.1963 36.605 91.6904 36.4683V34.0278C92.0664 34.0688 92.2681 34.0894 92.2954 34.0894C92.9858 34.0894 93.3311 33.8159 93.3311 33.269V28.3164H92.0493V25.6504H99.709C101.097 25.6504 102.078 25.8042 102.652 26.1118C103.561 26.604 104.016 27.5986 104.016 29.0957V36.5708ZM122.165 36.5708H110.927V25.835C112.342 25.6709 114.136 25.5889 116.31 25.5889C118.463 25.5889 119.926 25.7905 120.699 26.1938C121.676 26.6997 122.165 27.708 122.165 29.2188V36.5708ZM118.238 33.9868V29.4136C118.238 28.9351 118.115 28.6172 117.869 28.46C117.623 28.2959 117.103 28.2139 116.31 28.2139C115.661 28.2139 115.182 28.2207 114.875 28.2344V33.9868H118.238ZM135.926 36.5708H131.537L128.03 31.5054C128.003 31.4917 127.976 31.5088 127.948 31.5566C127.976 31.9053 127.955 32.2676 127.887 32.6436L127.189 36.5708H123.539L124.298 32.5205C124.605 30.8525 125.422 30.0186 126.749 30.0186L123.498 25.8862V25.6504H127.866L131.24 30.0801C131.288 30.0801 131.318 30.0596 131.332 30.0186C131.257 29.7793 131.264 29.3999 131.353 28.8804L131.875 25.6504H135.567L134.921 29.3726C134.641 30.9517 133.865 31.7412 132.593 31.7412L135.926 36.3657V36.5708ZM149.092 36.5708H145.165V29.2803C145.165 28.8496 145.045 28.5693 144.806 28.4395C144.669 28.3574 144.419 28.3164 144.057 28.3164H142.355V33.4434C142.355 34.5371 142.102 35.3335 141.596 35.8325C141.036 36.3931 140.099 36.6733 138.787 36.6733C137.946 36.6733 137.272 36.605 136.767 36.4683V34.0278C137.143 34.0688 137.344 34.0894 137.372 34.0894C138.062 34.0894 138.407 33.8159 138.407 33.269V28.3164H137.125V25.6504H144.785C146.173 25.6504 147.154 25.8042 147.728 26.1118C148.637 26.604 149.092 27.5986 149.092 29.0957V36.5708ZM155.09 36.5708H151.163V25.6504H155.09V36.5708ZM168.769 36.5708H162.678V33.9663H164.821V29.6187C164.821 28.6548 164.329 28.1729 163.345 28.1729C162.606 28.1729 162.118 28.6069 161.878 29.4751C161.783 29.8921 161.643 30.7808 161.458 32.1411L160.894 36.5708H157.069L157.705 32.459C157.842 31.543 157.89 30.897 157.849 30.521C157.767 29.7075 157.36 28.1626 156.628 25.8862V25.6709H160.453C160.747 26.4297 160.962 27.1646 161.099 27.8755C161.113 27.9165 161.144 27.937 161.191 27.937C161.219 27.937 161.239 27.9233 161.253 27.896C161.561 26.9458 162.022 26.3032 162.637 25.9683C163.095 25.7017 163.765 25.5684 164.647 25.5684C166.048 25.5684 167.063 25.835 167.692 26.3682C168.41 26.9561 168.769 27.9404 168.769 29.3213V36.5708Z" fill="#0A476D"/>
</svg>
