<svg width="10" height="11" viewBox="0 0 10 11" fill="none" xmlns="http://www.w3.org/2000/svg">
<path d="M9.38723 4.56711L5.09706 0.276311C4.84404 0.0239121 4.43474 0.0268984 4.18503 0.275988C3.9339 0.527764 3.9339 0.936568 4.18503 1.18802L8.47582 5.47852C8.72719 5.72988 9.13585 5.72988 9.38723 5.47852C9.63929 5.22646 9.63929 4.81912 9.38723 4.56711ZM3.86674 1.78116L3.83445 1.94303C3.60699 3.0808 3.0542 4.1617 2.30652 5.03776L4.64074 7.37198C5.5167 6.62445 6.58271 6.05681 7.72052 5.82908L7.88268 5.79679L3.86674 1.78116ZM1.87858 5.52125L0.283296 7.11621C-0.0936474 7.49315 -0.0952158 8.10511 0.283296 8.48362L1.19471 9.39503C1.57165 9.77198 2.18361 9.77352 2.56212 9.39503L4.15725 7.7999L1.87858 5.52125ZM2.10644 8.02794C1.98056 8.15382 1.77661 8.15382 1.65073 8.02794C1.52486 7.90206 1.52486 7.69811 1.65073 7.57223L2.10644 7.11653C2.23232 6.99065 2.43627 6.99065 2.56214 7.11653C2.68802 7.2424 2.68802 7.44636 2.56214 7.57223L2.10644 8.02794ZM5.5028 9.56652L5.94118 9.12813C6.31972 8.74966 6.31847 8.1377 5.94121 7.76106L5.61559 7.43521C5.43561 7.5561 5.26374 7.68745 5.09663 7.82762L5.4855 8.21707C5.61108 8.342 5.61196 8.54533 5.4855 8.67245L5.03987 9.11808L4.38498 8.48358L3.47353 9.39503L4.93569 10.8119C5.18521 11.062 5.5949 11.0634 5.84678 10.8115C6.09824 10.5601 6.09824 10.1513 5.84678 9.89981L5.5028 9.56652ZM6.80471 0C6.62658 0 6.48244 0.144139 6.48244 0.322266V0.966797C6.48244 1.14492 6.62658 1.28906 6.80471 1.28906C6.98283 1.28906 7.12697 1.14492 7.12697 0.966797V0.322266C7.12697 0.144139 6.98283 0 6.80471 0ZM9.38283 2.57813H8.7383C8.56017 2.57813 8.41603 2.72226 8.41603 2.90039C8.41603 3.07852 8.56017 3.22266 8.7383 3.22266H9.38283C9.56096 3.22266 9.7051 3.07852 9.7051 2.90039C9.7051 2.72226 9.56096 2.57813 9.38283 2.57813ZM8.96614 0.738934C8.84026 0.613057 8.63631 0.613057 8.51044 0.738934L7.8659 1.38346C7.74003 1.50934 7.74003 1.71329 7.8659 1.83917C7.99178 1.96505 8.19573 1.96507 8.32161 1.83917L8.96614 1.19464C9.09202 1.06876 9.09202 0.864811 8.96614 0.738934Z" fill="#78BF99"/>
</svg>
