<svg width="47" height="47" viewBox="0 0 47 47" fill="none" xmlns="http://www.w3.org/2000/svg">
<path d="M18.653 13.0299C18.953 12.2299 19.2869 11.5218 19.6492 10.9098C17.0752 11.6903 14.8342 13.2431 13.197 15.2975C14.4391 15.8325 15.9645 16.2581 17.6692 16.5525C17.926 15.2757 18.2558 14.0891 18.653 13.0299ZM17.3157 18.715C15.2671 18.3601 13.4326 17.8281 11.9613 17.1501C11.0788 18.7521 10.5443 20.5222 10.3928 22.3449H17.0364C17.0713 21.0985 17.1658 19.8812 17.3157 18.715ZM27.0335 16.8474C26.8049 15.7425 26.5179 14.7166 26.1748 13.8015C25.3764 11.6717 24.33 10.3486 23.444 10.3486C22.557 10.3486 21.5097 11.6718 20.711 13.8016C20.3678 14.7166 20.0808 15.7424 19.852 16.8472C21.0047 16.9626 22.2103 17.0235 23.444 17.0235C24.6769 17.0235 25.8817 16.9627 27.0336 16.8474H27.0335ZM19.4927 27.874C20.7647 27.7398 22.0915 27.6689 23.444 27.6689C24.7957 27.6689 26.1216 27.7397 27.3929 27.8739C27.529 26.8066 27.6152 25.6897 27.649 24.5428H19.2366C19.2704 25.6897 19.3565 26.8067 19.4927 27.874ZM17.0364 24.5428H10.3928C10.5443 26.3662 11.0792 28.1371 11.9624 29.7396C13.4335 29.0619 15.2677 28.53 17.316 28.1752C17.1659 27.0083 17.0713 25.7901 17.0364 24.5428ZM29.2164 16.5527C30.9213 16.2582 32.4466 15.8325 33.6891 15.2973C32.0517 13.2426 29.8107 11.6898 27.2367 10.9095C27.599 11.5215 27.9328 12.2297 28.2328 13.03C28.63 14.0893 28.9597 15.2759 29.2164 16.5527ZM27.393 19.0164C26.1218 19.1506 24.7958 19.2214 23.4441 19.2214C22.0914 19.2214 20.7645 19.1506 19.4925 19.0162C19.3564 20.0828 19.2703 21.1989 19.2365 22.3449H27.649C27.6152 21.199 27.529 20.0829 27.393 19.0164ZM19.8523 30.043C20.0811 31.1473 20.3679 32.1725 20.711 33.087C21.5095 35.2162 22.5568 36.539 23.444 36.539C24.3301 36.539 25.3765 35.2163 26.1749 33.0871C26.5178 32.1725 26.8046 31.1472 27.0333 30.0429C25.8815 29.9277 24.6768 29.8669 23.444 29.8669C22.2105 29.8669 21.0048 29.9277 19.8523 30.0431V30.043Z" fill="#0A476D"/>
<path d="M37.6797 0H9.20837C4.13091 0 0 4.13082 0 9.20837V37.6797C0 42.7572 4.13091 46.888 9.20837 46.888H37.6797C42.7558 46.888 46.8855 42.7572 46.8855 37.6797V9.20837C46.8855 4.13082 42.7557 0 37.6797 0ZM23.444 38.737C15.01 38.737 8.14835 31.8766 8.14835 23.444C8.14835 15.0114 15.01 8.15092 23.444 8.15092C31.8766 8.15092 38.7371 15.0114 38.7371 23.444C38.7371 31.8766 31.8766 38.737 23.444 38.737Z" fill="#0A476D"/>
<path d="M29.8491 22.3443H36.4927C36.3413 20.5216 35.8069 18.7514 34.9244 17.1494C33.4531 17.8276 31.6185 18.3596 29.5699 18.7145C29.7197 19.8807 29.8142 21.0981 29.8492 22.3443H29.8491ZM28.2328 33.8581C27.9329 34.6578 27.5993 35.3657 27.2372 35.9774C29.8102 35.1974 32.0503 33.6453 33.6874 31.5917C32.4452 31.0568 30.9204 30.6313 29.2161 30.3369C28.9594 31.6133 28.6298 32.7992 28.2328 33.8581ZM17.6695 30.337C15.9653 30.6315 14.4405 31.0568 13.1985 31.5915C14.8356 33.6448 17.0758 35.1967 19.6487 35.9771C19.2866 35.3653 18.9529 34.6577 18.653 33.8582C18.2559 32.7994 17.9262 31.6135 17.6695 30.337H17.6695ZM29.5696 28.1745C31.6178 28.5293 33.452 29.0612 34.9233 29.739C35.8064 28.1365 36.3412 26.3656 36.4927 24.5422H29.8491C29.8142 25.7894 29.7196 27.0075 29.5696 28.1745Z" fill="#0A476D"/>
</svg>
